<?xml version="1.0" encoding="utf-8" standalone="no"?>
<!DOCTYPE svg PUBLIC "-//W3C//DTD SVG 1.1//EN"
  "http://www.w3.org/Graphics/SVG/1.1/DTD/svg11.dtd">
<!-- Created with matplotlib (http://matplotlib.org/) -->
<svg height="360pt" version="1.1" viewBox="0 0 720 360" width="720pt" xmlns="http://www.w3.org/2000/svg" xmlns:xlink="http://www.w3.org/1999/xlink">
 <defs>
  <style type="text/css">
*{stroke-linecap:butt;stroke-linejoin:round;}
  </style>
 </defs>
 <g id="figure_1">
  <g id="patch_1">
   <path d="M 0 360 
L 720 360 
L 720 0 
L 0 0 
z
" style="fill:#ffffff;"/>
  </g>
  <g id="axes_1">
   <g id="patch_2">
    <path d="M 90 320.4 
L 536.4 320.4 
L 536.4 70.92 
L 90 70.92 
z
" style="fill:#ffffff;"/>
   </g>
   <g id="matplotlib.axis_1">
    <g id="xtick_1">
     <g id="line2d_1">
      <defs>
       <path d="M 0 0 
L 0 3.5 
" id="md9fd7b3df2" style="stroke:#000000;stroke-width:0.8;"/>
      </defs>
      <g>
       <use style="stroke:#000000;stroke-width:0.8;" x="90" xlink:href="#md9fd7b3df2" y="320.4"/>
      </g>
     </g>
     <g id="text_1">
      <!-- 0.0 -->
      <defs>
       <path d="M 31.78125 66.40625 
Q 24.171875 66.40625 20.328125 58.90625 
Q 16.5 51.421875 16.5 36.375 
Q 16.5 21.390625 20.328125 13.890625 
Q 24.171875 6.390625 31.78125 6.390625 
Q 39.453125 6.390625 43.28125 13.890625 
Q 47.125 21.390625 47.125 36.375 
Q 47.125 51.421875 43.28125 58.90625 
Q 39.453125 66.40625 31.78125 66.40625 
M 31.78125 74.21875 
Q 44.046875 74.21875 50.515625 64.515625 
Q 56.984375 54.828125 56.984375 36.375 
Q 56.984375 17.96875 50.515625 8.265625 
Q 44.046875 -1.421875 31.78125 -1.421875 
Q 19.53125 -1.421875 13.0625 8.265625 
Q 6.59375 17.96875 6.59375 36.375 
Q 6.59375 54.828125 13.0625 64.515625 
Q 19.53125 74.21875 31.78125 74.21875 
" id="DejaVuSans-30"/>
       <path d="M 10.6875 12.40625 
L 21 12.40625 
L 21 0 
L 10.6875 0 
z
" id="DejaVuSans-2e"/>
      </defs>
      <g transform="translate(75.687187 341.077187)scale(0.18 -0.18)">
       <use xlink:href="#DejaVuSans-30"/>
       <use x="63.623047" xlink:href="#DejaVuSans-2e"/>
       <use x="95.410156" xlink:href="#DejaVuSans-30"/>
      </g>
     </g>
    </g>
    <g id="xtick_2">
     <g id="line2d_2">
      <g>
       <use style="stroke:#000000;stroke-width:0.8;" x="179.28" xlink:href="#md9fd7b3df2" y="320.4"/>
      </g>
     </g>
     <g id="text_2">
      <!-- 0.2 -->
      <defs>
       <path d="M 19.1875 8.296875 
L 53.609375 8.296875 
L 53.609375 0 
L 7.328125 0 
L 7.328125 8.296875 
Q 12.9375 14.109375 22.625 23.890625 
Q 32.328125 33.6875 34.8125 36.53125 
Q 39.546875 41.84375 41.421875 45.53125 
Q 43.3125 49.21875 43.3125 52.78125 
Q 43.3125 58.59375 39.234375 62.25 
Q 35.15625 65.921875 28.609375 65.921875 
Q 23.96875 65.921875 18.8125 64.3125 
Q 13.671875 62.703125 7.8125 59.421875 
L 7.8125 69.390625 
Q 13.765625 71.78125 18.9375 73 
Q 24.125 74.21875 28.421875 74.21875 
Q 39.75 74.21875 46.484375 68.546875 
Q 53.21875 62.890625 53.21875 53.421875 
Q 53.21875 48.921875 51.53125 44.890625 
Q 49.859375 40.875 45.40625 35.40625 
Q 44.1875 33.984375 37.640625 27.21875 
Q 31.109375 20.453125 19.1875 8.296875 
" id="DejaVuSans-32"/>
      </defs>
      <g transform="translate(164.967188 341.077187)scale(0.18 -0.18)">
       <use xlink:href="#DejaVuSans-30"/>
       <use x="63.623047" xlink:href="#DejaVuSans-2e"/>
       <use x="95.410156" xlink:href="#DejaVuSans-32"/>
      </g>
     </g>
    </g>
    <g id="xtick_3">
     <g id="line2d_3">
      <g>
       <use style="stroke:#000000;stroke-width:0.8;" x="268.56" xlink:href="#md9fd7b3df2" y="320.4"/>
      </g>
     </g>
     <g id="text_3">
      <!-- 0.4 -->
      <defs>
       <path d="M 37.796875 64.3125 
L 12.890625 25.390625 
L 37.796875 25.390625 
z
M 35.203125 72.90625 
L 47.609375 72.90625 
L 47.609375 25.390625 
L 58.015625 25.390625 
L 58.015625 17.1875 
L 47.609375 17.1875 
L 47.609375 0 
L 37.796875 0 
L 37.796875 17.1875 
L 4.890625 17.1875 
L 4.890625 26.703125 
z
" id="DejaVuSans-34"/>
      </defs>
      <g transform="translate(254.247188 341.077187)scale(0.18 -0.18)">
       <use xlink:href="#DejaVuSans-30"/>
       <use x="63.623047" xlink:href="#DejaVuSans-2e"/>
       <use x="95.410156" xlink:href="#DejaVuSans-34"/>
      </g>
     </g>
    </g>
    <g id="xtick_4">
     <g id="line2d_4">
      <g>
       <use style="stroke:#000000;stroke-width:0.8;" x="357.84" xlink:href="#md9fd7b3df2" y="320.4"/>
      </g>
     </g>
     <g id="text_4">
      <!-- 0.6 -->
      <defs>
       <path d="M 33.015625 40.375 
Q 26.375 40.375 22.484375 35.828125 
Q 18.609375 31.296875 18.609375 23.390625 
Q 18.609375 15.53125 22.484375 10.953125 
Q 26.375 6.390625 33.015625 6.390625 
Q 39.65625 6.390625 43.53125 10.953125 
Q 47.40625 15.53125 47.40625 23.390625 
Q 47.40625 31.296875 43.53125 35.828125 
Q 39.65625 40.375 33.015625 40.375 
M 52.59375 71.296875 
L 52.59375 62.3125 
Q 48.875 64.0625 45.09375 64.984375 
Q 41.3125 65.921875 37.59375 65.921875 
Q 27.828125 65.921875 22.671875 59.328125 
Q 17.53125 52.734375 16.796875 39.40625 
Q 19.671875 43.65625 24.015625 45.921875 
Q 28.375 48.1875 33.59375 48.1875 
Q 44.578125 48.1875 50.953125 41.515625 
Q 57.328125 34.859375 57.328125 23.390625 
Q 57.328125 12.15625 50.6875 5.359375 
Q 44.046875 -1.421875 33.015625 -1.421875 
Q 20.359375 -1.421875 13.671875 8.265625 
Q 6.984375 17.96875 6.984375 36.375 
Q 6.984375 53.65625 15.1875 63.9375 
Q 23.390625 74.21875 37.203125 74.21875 
Q 40.921875 74.21875 44.703125 73.484375 
Q 48.484375 72.75 52.59375 71.296875 
" id="DejaVuSans-36"/>
      </defs>
      <g transform="translate(343.527188 341.077187)scale(0.18 -0.18)">
       <use xlink:href="#DejaVuSans-30"/>
       <use x="63.623047" xlink:href="#DejaVuSans-2e"/>
       <use x="95.410156" xlink:href="#DejaVuSans-36"/>
      </g>
     </g>
    </g>
    <g id="xtick_5">
     <g id="line2d_5">
      <g>
       <use style="stroke:#000000;stroke-width:0.8;" x="447.12" xlink:href="#md9fd7b3df2" y="320.4"/>
      </g>
     </g>
     <g id="text_5">
      <!-- 0.8 -->
      <defs>
       <path d="M 31.78125 34.625 
Q 24.75 34.625 20.71875 30.859375 
Q 16.703125 27.09375 16.703125 20.515625 
Q 16.703125 13.921875 20.71875 10.15625 
Q 24.75 6.390625 31.78125 6.390625 
Q 38.8125 6.390625 42.859375 10.171875 
Q 46.921875 13.96875 46.921875 20.515625 
Q 46.921875 27.09375 42.890625 30.859375 
Q 38.875 34.625 31.78125 34.625 
M 21.921875 38.8125 
Q 15.578125 40.375 12.03125 44.71875 
Q 8.5 49.078125 8.5 55.328125 
Q 8.5 64.0625 14.71875 69.140625 
Q 20.953125 74.21875 31.78125 74.21875 
Q 42.671875 74.21875 48.875 69.140625 
Q 55.078125 64.0625 55.078125 55.328125 
Q 55.078125 49.078125 51.53125 44.71875 
Q 48 40.375 41.703125 38.8125 
Q 48.828125 37.15625 52.796875 32.3125 
Q 56.78125 27.484375 56.78125 20.515625 
Q 56.78125 9.90625 50.3125 4.234375 
Q 43.84375 -1.421875 31.78125 -1.421875 
Q 19.734375 -1.421875 13.25 4.234375 
Q 6.78125 9.90625 6.78125 20.515625 
Q 6.78125 27.484375 10.78125 32.3125 
Q 14.796875 37.15625 21.921875 38.8125 
M 18.3125 54.390625 
Q 18.3125 48.734375 21.84375 45.5625 
Q 25.390625 42.390625 31.78125 42.390625 
Q 38.140625 42.390625 41.71875 45.5625 
Q 45.3125 48.734375 45.3125 54.390625 
Q 45.3125 60.0625 41.71875 63.234375 
Q 38.140625 66.40625 31.78125 66.40625 
Q 25.390625 66.40625 21.84375 63.234375 
Q 18.3125 60.0625 18.3125 54.390625 
" id="DejaVuSans-38"/>
      </defs>
      <g transform="translate(432.807188 341.077187)scale(0.18 -0.18)">
       <use xlink:href="#DejaVuSans-30"/>
       <use x="63.623047" xlink:href="#DejaVuSans-2e"/>
       <use x="95.410156" xlink:href="#DejaVuSans-38"/>
      </g>
     </g>
    </g>
    <g id="xtick_6">
     <g id="line2d_6">
      <g>
       <use style="stroke:#000000;stroke-width:0.8;" x="536.4" xlink:href="#md9fd7b3df2" y="320.4"/>
      </g>
     </g>
     <g id="text_6">
      <!-- 1.0 -->
      <defs>
       <path d="M 12.40625 8.296875 
L 28.515625 8.296875 
L 28.515625 63.921875 
L 10.984375 60.40625 
L 10.984375 69.390625 
L 28.421875 72.90625 
L 38.28125 72.90625 
L 38.28125 8.296875 
L 54.390625 8.296875 
L 54.390625 0 
L 12.40625 0 
z
" id="DejaVuSans-31"/>
      </defs>
      <g transform="translate(522.087188 341.077187)scale(0.18 -0.18)">
       <use xlink:href="#DejaVuSans-31"/>
       <use x="63.623047" xlink:href="#DejaVuSans-2e"/>
       <use x="95.410156" xlink:href="#DejaVuSans-30"/>
      </g>
     </g>
    </g>
    <g id="text_7">
     <!-- FPR dispersion (Gini index) -->
     <defs>
      <path d="M 9.8125 72.90625 
L 51.703125 72.90625 
L 51.703125 64.59375 
L 19.671875 64.59375 
L 19.671875 43.109375 
L 48.578125 43.109375 
L 48.578125 34.8125 
L 19.671875 34.8125 
L 19.671875 0 
L 9.8125 0 
z
" id="DejaVuSans-46"/>
      <path d="M 19.671875 64.796875 
L 19.671875 37.40625 
L 32.078125 37.40625 
Q 38.96875 37.40625 42.71875 40.96875 
Q 46.484375 44.53125 46.484375 51.125 
Q 46.484375 57.671875 42.71875 61.234375 
Q 38.96875 64.796875 32.078125 64.796875 
z
M 9.8125 72.90625 
L 32.078125 72.90625 
Q 44.34375 72.90625 50.609375 67.359375 
Q 56.890625 61.8125 56.890625 51.125 
Q 56.890625 40.328125 50.609375 34.8125 
Q 44.34375 29.296875 32.078125 29.296875 
L 19.671875 29.296875 
L 19.671875 0 
L 9.8125 0 
z
" id="DejaVuSans-50"/>
      <path d="M 44.390625 34.1875 
Q 47.5625 33.109375 50.5625 29.59375 
Q 53.5625 26.078125 56.59375 19.921875 
L 66.609375 0 
L 56 0 
L 46.6875 18.703125 
Q 43.0625 26.03125 39.671875 28.421875 
Q 36.28125 30.8125 30.421875 30.8125 
L 19.671875 30.8125 
L 19.671875 0 
L 9.8125 0 
L 9.8125 72.90625 
L 32.078125 72.90625 
Q 44.578125 72.90625 50.734375 67.671875 
Q 56.890625 62.453125 56.890625 51.90625 
Q 56.890625 45.015625 53.6875 40.46875 
Q 50.484375 35.9375 44.390625 34.1875 
M 19.671875 64.796875 
L 19.671875 38.921875 
L 32.078125 38.921875 
Q 39.203125 38.921875 42.84375 42.21875 
Q 46.484375 45.515625 46.484375 51.90625 
Q 46.484375 58.296875 42.84375 61.546875 
Q 39.203125 64.796875 32.078125 64.796875 
z
" id="DejaVuSans-52"/>
      <path id="DejaVuSans-20"/>
      <path d="M 45.40625 46.390625 
L 45.40625 75.984375 
L 54.390625 75.984375 
L 54.390625 0 
L 45.40625 0 
L 45.40625 8.203125 
Q 42.578125 3.328125 38.25 0.953125 
Q 33.9375 -1.421875 27.875 -1.421875 
Q 17.96875 -1.421875 11.734375 6.484375 
Q 5.515625 14.40625 5.515625 27.296875 
Q 5.515625 40.1875 11.734375 48.09375 
Q 17.96875 56 27.875 56 
Q 33.9375 56 38.25 53.625 
Q 42.578125 51.265625 45.40625 46.390625 
M 14.796875 27.296875 
Q 14.796875 17.390625 18.875 11.75 
Q 22.953125 6.109375 30.078125 6.109375 
Q 37.203125 6.109375 41.296875 11.75 
Q 45.40625 17.390625 45.40625 27.296875 
Q 45.40625 37.203125 41.296875 42.84375 
Q 37.203125 48.484375 30.078125 48.484375 
Q 22.953125 48.484375 18.875 42.84375 
Q 14.796875 37.203125 14.796875 27.296875 
" id="DejaVuSans-64"/>
      <path d="M 9.421875 54.6875 
L 18.40625 54.6875 
L 18.40625 0 
L 9.421875 0 
z
M 9.421875 75.984375 
L 18.40625 75.984375 
L 18.40625 64.59375 
L 9.421875 64.59375 
z
" id="DejaVuSans-69"/>
      <path d="M 44.28125 53.078125 
L 44.28125 44.578125 
Q 40.484375 46.53125 36.375 47.5 
Q 32.28125 48.484375 27.875 48.484375 
Q 21.1875 48.484375 17.84375 46.4375 
Q 14.5 44.390625 14.5 40.28125 
Q 14.5 37.15625 16.890625 35.375 
Q 19.28125 33.59375 26.515625 31.984375 
L 29.59375 31.296875 
Q 39.15625 29.25 43.1875 25.515625 
Q 47.21875 21.78125 47.21875 15.09375 
Q 47.21875 7.46875 41.1875 3.015625 
Q 35.15625 -1.421875 24.609375 -1.421875 
Q 20.21875 -1.421875 15.453125 -0.5625 
Q 10.6875 0.296875 5.421875 2 
L 5.421875 11.28125 
Q 10.40625 8.6875 15.234375 7.390625 
Q 20.0625 6.109375 24.8125 6.109375 
Q 31.15625 6.109375 34.5625 8.28125 
Q 37.984375 10.453125 37.984375 14.40625 
Q 37.984375 18.0625 35.515625 20.015625 
Q 33.0625 21.96875 24.703125 23.78125 
L 21.578125 24.515625 
Q 13.234375 26.265625 9.515625 29.90625 
Q 5.8125 33.546875 5.8125 39.890625 
Q 5.8125 47.609375 11.28125 51.796875 
Q 16.75 56 26.8125 56 
Q 31.78125 56 36.171875 55.265625 
Q 40.578125 54.546875 44.28125 53.078125 
" id="DejaVuSans-73"/>
      <path d="M 18.109375 8.203125 
L 18.109375 -20.796875 
L 9.078125 -20.796875 
L 9.078125 54.6875 
L 18.109375 54.6875 
L 18.109375 46.390625 
Q 20.953125 51.265625 25.265625 53.625 
Q 29.59375 56 35.59375 56 
Q 45.5625 56 51.78125 48.09375 
Q 58.015625 40.1875 58.015625 27.296875 
Q 58.015625 14.40625 51.78125 6.484375 
Q 45.5625 -1.421875 35.59375 -1.421875 
Q 29.59375 -1.421875 25.265625 0.953125 
Q 20.953125 3.328125 18.109375 8.203125 
M 48.6875 27.296875 
Q 48.6875 37.203125 44.609375 42.84375 
Q 40.53125 48.484375 33.40625 48.484375 
Q 26.265625 48.484375 22.1875 42.84375 
Q 18.109375 37.203125 18.109375 27.296875 
Q 18.109375 17.390625 22.1875 11.75 
Q 26.265625 6.109375 33.40625 6.109375 
Q 40.53125 6.109375 44.609375 11.75 
Q 48.6875 17.390625 48.6875 27.296875 
" id="DejaVuSans-70"/>
      <path d="M 56.203125 29.59375 
L 56.203125 25.203125 
L 14.890625 25.203125 
Q 15.484375 15.921875 20.484375 11.0625 
Q 25.484375 6.203125 34.421875 6.203125 
Q 39.59375 6.203125 44.453125 7.46875 
Q 49.3125 8.734375 54.109375 11.28125 
L 54.109375 2.78125 
Q 49.265625 0.734375 44.1875 -0.34375 
Q 39.109375 -1.421875 33.890625 -1.421875 
Q 20.796875 -1.421875 13.15625 6.1875 
Q 5.515625 13.8125 5.515625 26.8125 
Q 5.515625 40.234375 12.765625 48.109375 
Q 20.015625 56 32.328125 56 
Q 43.359375 56 49.78125 48.890625 
Q 56.203125 41.796875 56.203125 29.59375 
M 47.21875 32.234375 
Q 47.125 39.59375 43.09375 43.984375 
Q 39.0625 48.390625 32.421875 48.390625 
Q 24.90625 48.390625 20.390625 44.140625 
Q 15.875 39.890625 15.1875 32.171875 
z
" id="DejaVuSans-65"/>
      <path d="M 41.109375 46.296875 
Q 39.59375 47.171875 37.8125 47.578125 
Q 36.03125 48 33.890625 48 
Q 26.265625 48 22.1875 43.046875 
Q 18.109375 38.09375 18.109375 28.8125 
L 18.109375 0 
L 9.078125 0 
L 9.078125 54.6875 
L 18.109375 54.6875 
L 18.109375 46.1875 
Q 20.953125 51.171875 25.484375 53.578125 
Q 30.03125 56 36.53125 56 
Q 37.453125 56 38.578125 55.875 
Q 39.703125 55.765625 41.0625 55.515625 
z
" id="DejaVuSans-72"/>
      <path d="M 30.609375 48.390625 
Q 23.390625 48.390625 19.1875 42.75 
Q 14.984375 37.109375 14.984375 27.296875 
Q 14.984375 17.484375 19.15625 11.84375 
Q 23.34375 6.203125 30.609375 6.203125 
Q 37.796875 6.203125 41.984375 11.859375 
Q 46.1875 17.53125 46.1875 27.296875 
Q 46.1875 37.015625 41.984375 42.703125 
Q 37.796875 48.390625 30.609375 48.390625 
M 30.609375 56 
Q 42.328125 56 49.015625 48.375 
Q 55.71875 40.765625 55.71875 27.296875 
Q 55.71875 13.875 49.015625 6.21875 
Q 42.328125 -1.421875 30.609375 -1.421875 
Q 18.84375 -1.421875 12.171875 6.21875 
Q 5.515625 13.875 5.515625 27.296875 
Q 5.515625 40.765625 12.171875 48.375 
Q 18.84375 56 30.609375 56 
" id="DejaVuSans-6f"/>
      <path d="M 54.890625 33.015625 
L 54.890625 0 
L 45.90625 0 
L 45.90625 32.71875 
Q 45.90625 40.484375 42.875 44.328125 
Q 39.84375 48.1875 33.796875 48.1875 
Q 26.515625 48.1875 22.3125 43.546875 
Q 18.109375 38.921875 18.109375 30.90625 
L 18.109375 0 
L 9.078125 0 
L 9.078125 54.6875 
L 18.109375 54.6875 
L 18.109375 46.1875 
Q 21.34375 51.125 25.703125 53.5625 
Q 30.078125 56 35.796875 56 
Q 45.21875 56 50.046875 50.171875 
Q 54.890625 44.34375 54.890625 33.015625 
" id="DejaVuSans-6e"/>
      <path d="M 31 75.875 
Q 24.46875 64.65625 21.28125 53.65625 
Q 18.109375 42.671875 18.109375 31.390625 
Q 18.109375 20.125 21.3125 9.0625 
Q 24.515625 -2 31 -13.1875 
L 23.1875 -13.1875 
Q 15.875 -1.703125 12.234375 9.375 
Q 8.59375 20.453125 8.59375 31.390625 
Q 8.59375 42.28125 12.203125 53.3125 
Q 15.828125 64.359375 23.1875 75.875 
z
" id="DejaVuSans-28"/>
      <path d="M 59.515625 10.40625 
L 59.515625 29.984375 
L 43.40625 29.984375 
L 43.40625 38.09375 
L 69.28125 38.09375 
L 69.28125 6.78125 
Q 63.578125 2.734375 56.6875 0.65625 
Q 49.8125 -1.421875 42 -1.421875 
Q 24.90625 -1.421875 15.25 8.5625 
Q 5.609375 18.5625 5.609375 36.375 
Q 5.609375 54.25 15.25 64.234375 
Q 24.90625 74.21875 42 74.21875 
Q 49.125 74.21875 55.546875 72.453125 
Q 61.96875 70.703125 67.390625 67.28125 
L 67.390625 56.78125 
Q 61.921875 61.421875 55.765625 63.765625 
Q 49.609375 66.109375 42.828125 66.109375 
Q 29.4375 66.109375 22.71875 58.640625 
Q 16.015625 51.171875 16.015625 36.375 
Q 16.015625 21.625 22.71875 14.15625 
Q 29.4375 6.6875 42.828125 6.6875 
Q 48.046875 6.6875 52.140625 7.59375 
Q 56.25 8.5 59.515625 10.40625 
" id="DejaVuSans-47"/>
      <path d="M 54.890625 54.6875 
L 35.109375 28.078125 
L 55.90625 0 
L 45.3125 0 
L 29.390625 21.484375 
L 13.484375 0 
L 2.875 0 
L 24.125 28.609375 
L 4.6875 54.6875 
L 15.28125 54.6875 
L 29.78125 35.203125 
L 44.28125 54.6875 
z
" id="DejaVuSans-78"/>
      <path d="M 8.015625 75.875 
L 15.828125 75.875 
Q 23.140625 64.359375 26.78125 53.3125 
Q 30.421875 42.28125 30.421875 31.390625 
Q 30.421875 20.453125 26.78125 9.375 
Q 23.140625 -1.703125 15.828125 -13.1875 
L 8.015625 -13.1875 
Q 14.5 -2 17.703125 9.0625 
Q 20.90625 20.125 20.90625 31.390625 
Q 20.90625 42.671875 17.703125 53.65625 
Q 14.5 64.65625 8.015625 75.875 
" id="DejaVuSans-29"/>
     </defs>
     <g transform="translate(192.027656 362.497813)scale(0.18 -0.18)">
      <use xlink:href="#DejaVuSans-46"/>
      <use x="57.519531" xlink:href="#DejaVuSans-50"/>
      <use x="117.822266" xlink:href="#DejaVuSans-52"/>
      <use x="187.304688" xlink:href="#DejaVuSans-20"/>
      <use x="219.091797" xlink:href="#DejaVuSans-64"/>
      <use x="282.568359" xlink:href="#DejaVuSans-69"/>
      <use x="310.351562" xlink:href="#DejaVuSans-73"/>
      <use x="362.451172" xlink:href="#DejaVuSans-70"/>
      <use x="425.927734" xlink:href="#DejaVuSans-65"/>
      <use x="487.451172" xlink:href="#DejaVuSans-72"/>
      <use x="528.564453" xlink:href="#DejaVuSans-73"/>
      <use x="580.664062" xlink:href="#DejaVuSans-69"/>
      <use x="608.447266" xlink:href="#DejaVuSans-6f"/>
      <use x="669.628906" xlink:href="#DejaVuSans-6e"/>
      <use x="733.007812" xlink:href="#DejaVuSans-20"/>
      <use x="764.794922" xlink:href="#DejaVuSans-28"/>
      <use x="803.808594" xlink:href="#DejaVuSans-47"/>
      <use x="881.298828" xlink:href="#DejaVuSans-69"/>
      <use x="909.082031" xlink:href="#DejaVuSans-6e"/>
      <use x="972.460938" xlink:href="#DejaVuSans-69"/>
      <use x="1000.244141" xlink:href="#DejaVuSans-20"/>
      <use x="1032.03125" xlink:href="#DejaVuSans-69"/>
      <use x="1059.814453" xlink:href="#DejaVuSans-6e"/>
      <use x="1123.193359" xlink:href="#DejaVuSans-64"/>
      <use x="1186.669922" xlink:href="#DejaVuSans-65"/>
      <use x="1248.177734" xlink:href="#DejaVuSans-78"/>
      <use x="1307.357422" xlink:href="#DejaVuSans-29"/>
     </g>
    </g>
   </g>
   <g id="matplotlib.axis_2">
    <g id="ytick_1">
     <g id="line2d_7">
      <defs>
       <path d="M 0 0 
L -3.5 0 
" id="m1bfdd7fd28" style="stroke:#000000;stroke-width:0.8;"/>
      </defs>
      <g>
       <use style="stroke:#000000;stroke-width:0.8;" x="90" xlink:href="#m1bfdd7fd28" y="320.4"/>
      </g>
     </g>
     <g id="text_8">
      <!-- 0.0 -->
      <g transform="translate(54.374375 327.238594)scale(0.18 -0.18)">
       <use xlink:href="#DejaVuSans-30"/>
       <use x="63.623047" xlink:href="#DejaVuSans-2e"/>
       <use x="95.410156" xlink:href="#DejaVuSans-30"/>
      </g>
     </g>
    </g>
    <g id="ytick_2">
     <g id="line2d_8">
      <g>
       <use style="stroke:#000000;stroke-width:0.8;" x="90" xlink:href="#m1bfdd7fd28" y="270.504"/>
      </g>
     </g>
     <g id="text_9">
      <!-- 0.2 -->
      <g transform="translate(54.374375 277.342594)scale(0.18 -0.18)">
       <use xlink:href="#DejaVuSans-30"/>
       <use x="63.623047" xlink:href="#DejaVuSans-2e"/>
       <use x="95.410156" xlink:href="#DejaVuSans-32"/>
      </g>
     </g>
    </g>
    <g id="ytick_3">
     <g id="line2d_9">
      <g>
       <use style="stroke:#000000;stroke-width:0.8;" x="90" xlink:href="#m1bfdd7fd28" y="220.608"/>
      </g>
     </g>
     <g id="text_10">
      <!-- 0.4 -->
      <g transform="translate(54.374375 227.446594)scale(0.18 -0.18)">
       <use xlink:href="#DejaVuSans-30"/>
       <use x="63.623047" xlink:href="#DejaVuSans-2e"/>
       <use x="95.410156" xlink:href="#DejaVuSans-34"/>
      </g>
     </g>
    </g>
    <g id="ytick_4">
     <g id="line2d_10">
      <g>
       <use style="stroke:#000000;stroke-width:0.8;" x="90" xlink:href="#m1bfdd7fd28" y="170.712"/>
      </g>
     </g>
     <g id="text_11">
      <!-- 0.6 -->
      <g transform="translate(54.374375 177.550594)scale(0.18 -0.18)">
       <use xlink:href="#DejaVuSans-30"/>
       <use x="63.623047" xlink:href="#DejaVuSans-2e"/>
       <use x="95.410156" xlink:href="#DejaVuSans-36"/>
      </g>
     </g>
    </g>
    <g id="ytick_5">
     <g id="line2d_11">
      <g>
       <use style="stroke:#000000;stroke-width:0.8;" x="90" xlink:href="#m1bfdd7fd28" y="120.816"/>
      </g>
     </g>
     <g id="text_12">
      <!-- 0.8 -->
      <g transform="translate(54.374375 127.654594)scale(0.18 -0.18)">
       <use xlink:href="#DejaVuSans-30"/>
       <use x="63.623047" xlink:href="#DejaVuSans-2e"/>
       <use x="95.410156" xlink:href="#DejaVuSans-38"/>
      </g>
     </g>
    </g>
    <g id="ytick_6">
     <g id="line2d_12">
      <g>
       <use style="stroke:#000000;stroke-width:0.8;" x="90" xlink:href="#m1bfdd7fd28" y="70.92"/>
      </g>
     </g>
     <g id="text_13">
      <!-- 1.0 -->
      <g transform="translate(54.374375 77.758594)scale(0.18 -0.18)">
       <use xlink:href="#DejaVuSans-31"/>
       <use x="63.623047" xlink:href="#DejaVuSans-2e"/>
       <use x="95.410156" xlink:href="#DejaVuSans-30"/>
      </g>
     </g>
    </g>
    <g id="text_14">
     <!-- FNR dispersion (Gini index) -->
     <defs>
      <path d="M 9.8125 72.90625 
L 23.09375 72.90625 
L 55.421875 11.921875 
L 55.421875 72.90625 
L 64.984375 72.90625 
L 64.984375 0 
L 51.703125 0 
L 19.390625 60.984375 
L 19.390625 0 
L 9.8125 0 
z
" id="DejaVuSans-4e"/>
     </defs>
     <g transform="translate(46.630937 318.13875)rotate(-90)scale(0.18 -0.18)">
      <use xlink:href="#DejaVuSans-46"/>
      <use x="57.519531" xlink:href="#DejaVuSans-4e"/>
      <use x="132.324219" xlink:href="#DejaVuSans-52"/>
      <use x="201.806641" xlink:href="#DejaVuSans-20"/>
      <use x="233.59375" xlink:href="#DejaVuSans-64"/>
      <use x="297.070312" xlink:href="#DejaVuSans-69"/>
      <use x="324.853516" xlink:href="#DejaVuSans-73"/>
      <use x="376.953125" xlink:href="#DejaVuSans-70"/>
      <use x="440.429688" xlink:href="#DejaVuSans-65"/>
      <use x="501.953125" xlink:href="#DejaVuSans-72"/>
      <use x="543.066406" xlink:href="#DejaVuSans-73"/>
      <use x="595.166016" xlink:href="#DejaVuSans-69"/>
      <use x="622.949219" xlink:href="#DejaVuSans-6f"/>
      <use x="684.130859" xlink:href="#DejaVuSans-6e"/>
      <use x="747.509766" xlink:href="#DejaVuSans-20"/>
      <use x="779.296875" xlink:href="#DejaVuSans-28"/>
      <use x="818.310547" xlink:href="#DejaVuSans-47"/>
      <use x="895.800781" xlink:href="#DejaVuSans-69"/>
      <use x="923.583984" xlink:href="#DejaVuSans-6e"/>
      <use x="986.962891" xlink:href="#DejaVuSans-69"/>
      <use x="1014.746094" xlink:href="#DejaVuSans-20"/>
      <use x="1046.533203" xlink:href="#DejaVuSans-69"/>
      <use x="1074.316406" xlink:href="#DejaVuSans-6e"/>
      <use x="1137.695312" xlink:href="#DejaVuSans-64"/>
      <use x="1201.171875" xlink:href="#DejaVuSans-65"/>
      <use x="1262.679688" xlink:href="#DejaVuSans-78"/>
      <use x="1321.859375" xlink:href="#DejaVuSans-29"/>
     </g>
    </g>
   </g>
   <g id="LineCollection_1">
    <path clip-path="url(#p89feb3f468)" d="M 162.789397 271.313826 
L 183.286587 271.313826 
" style="fill:none;stroke:#0000ff;stroke-width:1.5;"/>
    <path clip-path="url(#p89feb3f468)" d="M 196.046718 276.49935 
L 212.895181 276.49935 
" style="fill:none;stroke:#0000ff;stroke-width:1.5;"/>
    <path clip-path="url(#p89feb3f468)" d="M 217.08705 285.596569 
L 248.861577 285.596569 
" style="fill:none;stroke:#0000ff;stroke-width:1.5;"/>
    <path clip-path="url(#p89feb3f468)" d="M 260.519865 293.612438 
L 309.922177 293.612438 
" style="fill:none;stroke:#0000ff;stroke-width:1.5;"/>
    <path clip-path="url(#p89feb3f468)" d="M 277.819071 298.975103 
L 330.03829 298.975103 
" style="fill:none;stroke:#0000ff;stroke-width:1.5;"/>
    <path clip-path="url(#p89feb3f468)" d="M 300.434386 302.074686 
L 363.986934 302.074686 
" style="fill:none;stroke:#0000ff;stroke-width:1.5;"/>
    <path clip-path="url(#p89feb3f468)" d="M 341.796655 305.602242 
L 391.749341 305.602242 
" style="fill:none;stroke:#0000ff;stroke-width:1.5;"/>
    <path clip-path="url(#p89feb3f468)" d="M 405.269389 308.37055 
L 434.092169 308.37055 
" style="fill:none;stroke:#0000ff;stroke-width:1.5;"/>
    <path clip-path="url(#p89feb3f468)" d="M 136.841695 313.740053 
L 555.052171 313.740053 
" style="fill:none;stroke:#0000ff;stroke-width:1.5;"/>
    <path clip-path="url(#p89feb3f468)" d="M 90 318.077247 
L 90 318.077247 
" style="fill:none;stroke:#0000ff;stroke-width:1.5;"/>
   </g>
   <g id="LineCollection_2">
    <path clip-path="url(#p89feb3f468)" d="M 173.037992 289.976266 
L 173.037992 252.651385 
" style="fill:none;stroke:#0000ff;stroke-width:1.5;"/>
    <path clip-path="url(#p89feb3f468)" d="M 204.47095 295.268874 
L 204.47095 257.729826 
" style="fill:none;stroke:#0000ff;stroke-width:1.5;"/>
    <path clip-path="url(#p89feb3f468)" d="M 232.974314 299.746605 
L 232.974314 271.446532 
" style="fill:none;stroke:#0000ff;stroke-width:1.5;"/>
    <path clip-path="url(#p89feb3f468)" d="M 285.221021 306.847041 
L 285.221021 280.377835 
" style="fill:none;stroke:#0000ff;stroke-width:1.5;"/>
    <path clip-path="url(#p89feb3f468)" d="M 303.92868 312.137951 
L 303.92868 285.812256 
" style="fill:none;stroke:#0000ff;stroke-width:1.5;"/>
    <path clip-path="url(#p89feb3f468)" d="M 332.21066 311.521339 
L 332.21066 292.628032 
" style="fill:none;stroke:#0000ff;stroke-width:1.5;"/>
    <path clip-path="url(#p89feb3f468)" d="M 366.772998 315.547614 
L 366.772998 295.656871 
" style="fill:none;stroke:#0000ff;stroke-width:1.5;"/>
    <path clip-path="url(#p89feb3f468)" d="M 419.680779 316.982975 
L 419.680779 299.758124 
" style="fill:none;stroke:#0000ff;stroke-width:1.5;"/>
    <path clip-path="url(#p89feb3f468)" d="M 345.946933 318.919358 
L 345.946933 308.560747 
" style="fill:none;stroke:#0000ff;stroke-width:1.5;"/>
    <path clip-path="url(#p89feb3f468)" d="M 90 320.1124 
L 90 316.042094 
" style="fill:none;stroke:#0000ff;stroke-width:1.5;"/>
   </g>
   <g id="LineCollection_3">
    <path clip-path="url(#p89feb3f468)" d="M 445.324893 309.659725 
L 479.914113 309.659725 
" style="fill:none;stroke:#008000;stroke-width:1.5;"/>
    <path clip-path="url(#p89feb3f468)" d="M 290.326721 284.213485 
L 340.494 284.213485 
" style="fill:none;stroke:#008000;stroke-width:1.5;"/>
    <path clip-path="url(#p89feb3f468)" d="M 247.322132 267.501683 
L 266.349524 267.501683 
" style="fill:none;stroke:#008000;stroke-width:1.5;"/>
   </g>
   <g id="LineCollection_4">
    <path clip-path="url(#p89feb3f468)" d="M 462.619503 314.230045 
L 462.619503 305.089405 
" style="fill:none;stroke:#008000;stroke-width:1.5;"/>
    <path clip-path="url(#p89feb3f468)" d="M 315.410361 293.023387 
L 315.410361 275.403583 
" style="fill:none;stroke:#008000;stroke-width:1.5;"/>
    <path clip-path="url(#p89feb3f468)" d="M 256.835828 281.707837 
L 256.835828 253.29553 
" style="fill:none;stroke:#008000;stroke-width:1.5;"/>
   </g>
   <g id="LineCollection_5">
    <path clip-path="url(#p89feb3f468)" d="M 282.606239 182.645309 
L 310.586289 182.645309 
" style="fill:none;stroke:#ff0000;stroke-width:1.5;"/>
    <path clip-path="url(#p89feb3f468)" d="M 248.808715 182.645309 
L 288.522572 182.645309 
" style="fill:none;stroke:#ff0000;stroke-width:1.5;"/>
    <path clip-path="url(#p89feb3f468)" d="M 230.511924 181.904279 
L 279.137775 181.904279 
" style="fill:none;stroke:#ff0000;stroke-width:1.5;"/>
    <path clip-path="url(#p89feb3f468)" d="M 220.545885 181.409077 
L 268.580636 181.409077 
" style="fill:none;stroke:#ff0000;stroke-width:1.5;"/>
    <path clip-path="url(#p89feb3f468)" d="M 232.547432 181.309914 
L 271.103095 181.309914 
" style="fill:none;stroke:#ff0000;stroke-width:1.5;"/>
    <path clip-path="url(#p89feb3f468)" d="M 232.547432 187.159028 
L 271.103095 187.159028 
" style="fill:none;stroke:#ff0000;stroke-width:1.5;"/>
    <path clip-path="url(#p89feb3f468)" d="M 232.547432 197.000949 
L 271.103095 197.000949 
" style="fill:none;stroke:#ff0000;stroke-width:1.5;"/>
   </g>
   <g id="LineCollection_6">
    <path clip-path="url(#p89feb3f468)" d="M 296.596264 198.31465 
L 296.596264 166.975968 
" style="fill:none;stroke:#ff0000;stroke-width:1.5;"/>
    <path clip-path="url(#p89feb3f468)" d="M 268.665644 198.31465 
L 268.665644 166.975968 
" style="fill:none;stroke:#ff0000;stroke-width:1.5;"/>
    <path clip-path="url(#p89feb3f468)" d="M 254.824849 197.821888 
L 254.824849 165.986671 
" style="fill:none;stroke:#ff0000;stroke-width:1.5;"/>
    <path clip-path="url(#p89feb3f468)" d="M 244.56326 195.889327 
L 244.56326 166.928828 
" style="fill:none;stroke:#ff0000;stroke-width:1.5;"/>
    <path clip-path="url(#p89feb3f468)" d="M 251.825264 196.134571 
L 251.825264 166.485256 
" style="fill:none;stroke:#ff0000;stroke-width:1.5;"/>
    <path clip-path="url(#p89feb3f468)" d="M 251.825264 206.269786 
L 251.825264 168.04827 
" style="fill:none;stroke:#ff0000;stroke-width:1.5;"/>
    <path clip-path="url(#p89feb3f468)" d="M 251.825264 224.09708 
L 251.825264 169.904817 
" style="fill:none;stroke:#ff0000;stroke-width:1.5;"/>
   </g>
   <g id="LineCollection_7">
    <path clip-path="url(#p89feb3f468)" d="M 263.142818 214.924297 
L 609.438241 214.924297 
" style="fill:none;stroke:#00bfbf;stroke-width:1.5;"/>
    <path clip-path="url(#p89feb3f468)" d="M 500.721435 214.924297 
L 512.257991 214.924297 
" style="fill:none;stroke:#00bfbf;stroke-width:1.5;"/>
    <path clip-path="url(#p89feb3f468)" d="M 495.151506 214.924297 
L 505.853435 214.924297 
" style="fill:none;stroke:#00bfbf;stroke-width:1.5;"/>
    <path clip-path="url(#p89feb3f468)" d="M 473.11728 214.924297 
L 503.818004 214.924297 
" style="fill:none;stroke:#00bfbf;stroke-width:1.5;"/>
    <path clip-path="url(#p89feb3f468)" d="M 459.157952 214.924297 
L 495.781057 214.924297 
" style="fill:none;stroke:#00bfbf;stroke-width:1.5;"/>
    <path clip-path="url(#p89feb3f468)" d="M 456.841454 214.924297 
L 495.844758 214.924297 
" style="fill:none;stroke:#00bfbf;stroke-width:1.5;"/>
   </g>
   <g id="LineCollection_8">
    <path clip-path="url(#p89feb3f468)" d="M 436.290529 252.142517 
L 436.290529 177.706077 
" style="fill:none;stroke:#00bfbf;stroke-width:1.5;"/>
    <path clip-path="url(#p89feb3f468)" d="M 506.489713 252.142517 
L 506.489713 177.706077 
" style="fill:none;stroke:#00bfbf;stroke-width:1.5;"/>
    <path clip-path="url(#p89feb3f468)" d="M 500.50247 252.142517 
L 500.50247 177.706077 
" style="fill:none;stroke:#00bfbf;stroke-width:1.5;"/>
    <path clip-path="url(#p89feb3f468)" d="M 488.467642 252.142517 
L 488.467642 177.706077 
" style="fill:none;stroke:#00bfbf;stroke-width:1.5;"/>
    <path clip-path="url(#p89feb3f468)" d="M 477.469504 252.142517 
L 477.469504 177.706077 
" style="fill:none;stroke:#00bfbf;stroke-width:1.5;"/>
    <path clip-path="url(#p89feb3f468)" d="M 476.343106 252.142517 
L 476.343106 177.706077 
" style="fill:none;stroke:#00bfbf;stroke-width:1.5;"/>
   </g>
   <g id="line2d_13">
    <path clip-path="url(#p89feb3f468)" d="M 173.037992 271.313826 
L 204.47095 276.49935 
L 232.974314 285.596569 
L 285.221021 293.612438 
L 303.92868 298.975103 
L 332.21066 302.074686 
L 366.772998 305.602242 
L 419.680779 308.37055 
L 345.946933 313.740053 
L 90 318.077247 
" style="fill:none;stroke:#0000ff;stroke-dasharray:5.6,2.4;stroke-dashoffset:0;stroke-width:1.5;"/>
    <defs>
     <path d="M 0 3 
C 0.795609 3 1.55874 2.683901 2.12132 2.12132 
C 2.683901 1.55874 3 0.795609 3 0 
C 3 -0.795609 2.683901 -1.55874 2.12132 -2.12132 
C 1.55874 -2.683901 0.795609 -3 0 -3 
C -0.795609 -3 -1.55874 -2.683901 -2.12132 -2.12132 
C -2.683901 -1.55874 -3 -0.795609 -3 0 
C -3 0.795609 -2.683901 1.55874 -2.12132 2.12132 
C -1.55874 2.683901 -0.795609 3 0 3 
z
" id="ma84a1c5565" style="stroke:#0000ff;"/>
    </defs>
    <g clip-path="url(#p89feb3f468)">
     <use style="fill:#0000ff;stroke:#0000ff;" x="173.037992" xlink:href="#ma84a1c5565" y="271.313826"/>
     <use style="fill:#0000ff;stroke:#0000ff;" x="204.47095" xlink:href="#ma84a1c5565" y="276.49935"/>
     <use style="fill:#0000ff;stroke:#0000ff;" x="232.974314" xlink:href="#ma84a1c5565" y="285.596569"/>
     <use style="fill:#0000ff;stroke:#0000ff;" x="285.221021" xlink:href="#ma84a1c5565" y="293.612438"/>
     <use style="fill:#0000ff;stroke:#0000ff;" x="303.92868" xlink:href="#ma84a1c5565" y="298.975103"/>
     <use style="fill:#0000ff;stroke:#0000ff;" x="332.21066" xlink:href="#ma84a1c5565" y="302.074686"/>
     <use style="fill:#0000ff;stroke:#0000ff;" x="366.772998" xlink:href="#ma84a1c5565" y="305.602242"/>
     <use style="fill:#0000ff;stroke:#0000ff;" x="419.680779" xlink:href="#ma84a1c5565" y="308.37055"/>
     <use style="fill:#0000ff;stroke:#0000ff;" x="345.946933" xlink:href="#ma84a1c5565" y="313.740053"/>
     <use style="fill:#0000ff;stroke:#0000ff;" x="90" xlink:href="#ma84a1c5565" y="318.077247"/>
    </g>
   </g>
   <g id="line2d_14">
    <path clip-path="url(#p89feb3f468)" d="M 462.619503 309.659725 
L 315.410361 284.213485 
L 256.835828 267.501683 
" style="fill:none;stroke:#008000;stroke-dasharray:5.6,2.4;stroke-dashoffset:0;stroke-width:1.5;"/>
    <defs>
     <path d="M 0 3 
C 0.795609 3 1.55874 2.683901 2.12132 2.12132 
C 2.683901 1.55874 3 0.795609 3 0 
C 3 -0.795609 2.683901 -1.55874 2.12132 -2.12132 
C 1.55874 -2.683901 0.795609 -3 0 -3 
C -0.795609 -3 -1.55874 -2.683901 -2.12132 -2.12132 
C -2.683901 -1.55874 -3 -0.795609 -3 0 
C -3 0.795609 -2.683901 1.55874 -2.12132 2.12132 
C -1.55874 2.683901 -0.795609 3 0 3 
z
" id="m0a8b992f9c" style="stroke:#008000;"/>
    </defs>
    <g clip-path="url(#p89feb3f468)">
     <use style="fill:#008000;stroke:#008000;" x="462.619503" xlink:href="#m0a8b992f9c" y="309.659725"/>
     <use style="fill:#008000;stroke:#008000;" x="315.410361" xlink:href="#m0a8b992f9c" y="284.213485"/>
     <use style="fill:#008000;stroke:#008000;" x="256.835828" xlink:href="#m0a8b992f9c" y="267.501683"/>
    </g>
   </g>
   <g id="line2d_15">
    <path clip-path="url(#p89feb3f468)" d="M 296.596264 182.645309 
L 268.665644 182.645309 
L 254.824849 181.904279 
L 244.56326 181.409077 
L 251.825264 181.309914 
L 251.825264 187.159028 
L 251.825264 197.000949 
" style="fill:none;stroke:#ff0000;stroke-dasharray:5.6,2.4;stroke-dashoffset:0;stroke-width:1.5;"/>
    <defs>
     <path d="M 0 3 
C 0.795609 3 1.55874 2.683901 2.12132 2.12132 
C 2.683901 1.55874 3 0.795609 3 0 
C 3 -0.795609 2.683901 -1.55874 2.12132 -2.12132 
C 1.55874 -2.683901 0.795609 -3 0 -3 
C -0.795609 -3 -1.55874 -2.683901 -2.12132 -2.12132 
C -2.683901 -1.55874 -3 -0.795609 -3 0 
C -3 0.795609 -2.683901 1.55874 -2.12132 2.12132 
C -1.55874 2.683901 -0.795609 3 0 3 
z
" id="m8bf04eef0c" style="stroke:#ff0000;"/>
    </defs>
    <g clip-path="url(#p89feb3f468)">
     <use style="fill:#ff0000;stroke:#ff0000;" x="296.596264" xlink:href="#m8bf04eef0c" y="182.645309"/>
     <use style="fill:#ff0000;stroke:#ff0000;" x="268.665644" xlink:href="#m8bf04eef0c" y="182.645309"/>
     <use style="fill:#ff0000;stroke:#ff0000;" x="254.824849" xlink:href="#m8bf04eef0c" y="181.904279"/>
     <use style="fill:#ff0000;stroke:#ff0000;" x="244.56326" xlink:href="#m8bf04eef0c" y="181.409077"/>
     <use style="fill:#ff0000;stroke:#ff0000;" x="251.825264" xlink:href="#m8bf04eef0c" y="181.309914"/>
     <use style="fill:#ff0000;stroke:#ff0000;" x="251.825264" xlink:href="#m8bf04eef0c" y="187.159028"/>
     <use style="fill:#ff0000;stroke:#ff0000;" x="251.825264" xlink:href="#m8bf04eef0c" y="197.000949"/>
    </g>
   </g>
   <g id="line2d_16">
    <path clip-path="url(#p89feb3f468)" d="M 436.290529 214.924297 
L 506.489713 214.924297 
L 500.50247 214.924297 
L 488.467642 214.924297 
L 477.469504 214.924297 
L 476.343106 214.924297 
" style="fill:none;stroke:#00bfbf;stroke-dasharray:5.6,2.4;stroke-dashoffset:0;stroke-width:1.5;"/>
    <defs>
     <path d="M 0 3 
C 0.795609 3 1.55874 2.683901 2.12132 2.12132 
C 2.683901 1.55874 3 0.795609 3 0 
C 3 -0.795609 2.683901 -1.55874 2.12132 -2.12132 
C 1.55874 -2.683901 0.795609 -3 0 -3 
C -0.795609 -3 -1.55874 -2.683901 -2.12132 -2.12132 
C -2.683901 -1.55874 -3 -0.795609 -3 0 
C -3 0.795609 -2.683901 1.55874 -2.12132 2.12132 
C -1.55874 2.683901 -0.795609 3 0 3 
z
" id="m3b43510e8c" style="stroke:#00bfbf;"/>
    </defs>
    <g clip-path="url(#p89feb3f468)">
     <use style="fill:#00bfbf;stroke:#00bfbf;" x="436.290529" xlink:href="#m3b43510e8c" y="214.924297"/>
     <use style="fill:#00bfbf;stroke:#00bfbf;" x="506.489713" xlink:href="#m3b43510e8c" y="214.924297"/>
     <use style="fill:#00bfbf;stroke:#00bfbf;" x="500.50247" xlink:href="#m3b43510e8c" y="214.924297"/>
     <use style="fill:#00bfbf;stroke:#00bfbf;" x="488.467642" xlink:href="#m3b43510e8c" y="214.924297"/>
     <use style="fill:#00bfbf;stroke:#00bfbf;" x="477.469504" xlink:href="#m3b43510e8c" y="214.924297"/>
     <use style="fill:#00bfbf;stroke:#00bfbf;" x="476.343106" xlink:href="#m3b43510e8c" y="214.924297"/>
    </g>
   </g>
   <g id="patch_3">
    <path d="M 90 320.4 
L 90 70.92 
" style="fill:none;stroke:#000000;stroke-linecap:square;stroke-linejoin:miter;stroke-width:0.8;"/>
   </g>
   <g id="patch_4">
    <path d="M 536.4 320.4 
L 536.4 70.92 
" style="fill:none;stroke:#000000;stroke-linecap:square;stroke-linejoin:miter;stroke-width:0.8;"/>
   </g>
   <g id="patch_5">
    <path d="M 90 320.4 
L 536.4 320.4 
" style="fill:none;stroke:#000000;stroke-linecap:square;stroke-linejoin:miter;stroke-width:0.8;"/>
   </g>
   <g id="patch_6">
    <path d="M 90 70.92 
L 536.4 70.92 
" style="fill:none;stroke:#000000;stroke-linecap:square;stroke-linejoin:miter;stroke-width:0.8;"/>
   </g>
   <g id="patch_7">
    <path d="M 174.866352 285.80727 
Q 174.296243 279.123335 173.726134 272.439401 
Q 179.415347 275.993674 185.104559 279.547947 
z
" style="fill:#0000ff;stroke:#000000;stroke-linecap:round;"/>
   </g>
   <g id="text_15">
    <!-- 100.0 -->
    <g transform="translate(128.397992 296.261826)scale(0.18 -0.18)">
     <use xlink:href="#DejaVuSans-31"/>
     <use x="63.623047" xlink:href="#DejaVuSans-30"/>
     <use x="127.246094" xlink:href="#DejaVuSans-30"/>
     <use x="190.869141" xlink:href="#DejaVuSans-2e"/>
     <use x="222.65625" xlink:href="#DejaVuSans-30"/>
    </g>
   </g>
   <g id="patch_8">
    <path d="M 91.828361 332.570691 
Q 91.258251 325.886757 90.688142 319.202823 
Q 96.377355 322.757096 102.066568 326.311369 
z
" style="fill:#0000ff;stroke:#000000;stroke-linecap:round;"/>
   </g>
   <g id="text_16">
    <!-- 800.0 -->
    <g transform="translate(45.36 343.025247)scale(0.18 -0.18)">
     <use xlink:href="#DejaVuSans-38"/>
     <use x="63.623047" xlink:href="#DejaVuSans-30"/>
     <use x="127.246094" xlink:href="#DejaVuSans-30"/>
     <use x="190.869141" xlink:href="#DejaVuSans-2e"/>
     <use x="222.65625" xlink:href="#DejaVuSans-30"/>
    </g>
   </g>
   <g id="patch_9">
    <path d="M 452.100139 319.657286 
Q 457.132095 315.221137 462.164051 310.784988 
Q 462.693797 317.472242 463.223542 324.159497 
z
" style="fill:#008000;stroke:#000000;stroke-linecap:round;"/>
   </g>
   <g id="text_17">
    <!-- 25.0 -->
    <defs>
     <path d="M 10.796875 72.90625 
L 49.515625 72.90625 
L 49.515625 64.59375 
L 19.828125 64.59375 
L 19.828125 46.734375 
Q 21.96875 47.46875 24.109375 47.828125 
Q 26.265625 48.1875 28.421875 48.1875 
Q 40.625 48.1875 47.75 41.5 
Q 54.890625 34.8125 54.890625 23.390625 
Q 54.890625 11.625 47.5625 5.09375 
Q 40.234375 -1.421875 26.90625 -1.421875 
Q 22.3125 -1.421875 17.546875 -0.640625 
Q 12.796875 0.140625 7.71875 1.703125 
L 7.71875 11.625 
Q 12.109375 9.234375 16.796875 8.0625 
Q 21.484375 6.890625 26.703125 6.890625 
Q 35.15625 6.890625 40.078125 11.328125 
Q 45.015625 15.765625 45.015625 23.390625 
Q 45.015625 31 40.078125 35.4375 
Q 35.15625 39.890625 26.703125 39.890625 
Q 22.75 39.890625 18.8125 39.015625 
Q 14.890625 38.140625 10.796875 36.28125 
z
" id="DejaVuSans-35"/>
    </defs>
    <g transform="translate(417.979503 334.607725)scale(0.18 -0.18)">
     <use xlink:href="#DejaVuSans-32"/>
     <use x="63.623047" xlink:href="#DejaVuSans-35"/>
     <use x="127.246094" xlink:href="#DejaVuSans-2e"/>
     <use x="159.033203" xlink:href="#DejaVuSans-30"/>
    </g>
   </g>
   <g id="patch_10">
    <path d="M 258.664189 281.995127 
Q 258.094079 275.311193 257.52397 268.627259 
Q 263.213183 272.181532 268.902396 275.735805 
z
" style="fill:#008000;stroke:#000000;stroke-linecap:round;"/>
   </g>
   <g id="text_18">
    <!-- 200.0 -->
    <g transform="translate(212.195828 292.449683)scale(0.18 -0.18)">
     <use xlink:href="#DejaVuSans-32"/>
     <use x="63.623047" xlink:href="#DejaVuSans-30"/>
     <use x="127.246094" xlink:href="#DejaVuSans-30"/>
     <use x="190.869141" xlink:href="#DejaVuSans-2e"/>
     <use x="222.65625" xlink:href="#DejaVuSans-30"/>
    </g>
   </g>
   <g id="patch_11">
    <path d="M 283.026762 189.749766 
Q 283.527094 189.397635 284.027427 189.045504 
L 281.725257 185.774417 
Q 288.358839 184.77425 294.99242 183.774083 
Q 291.812094 189.680881 288.631767 195.587679 
L 286.329597 192.316592 
Q 285.829264 192.668722 285.328932 193.020853 
L 283.026762 189.749766 
z
" style="fill:#ff0000;stroke:#000000;stroke-linecap:round;"/>
   </g>
   <g id="text_19">
    <!-- 5.0 -->
    <g transform="translate(251.956264 207.593309)scale(0.18 -0.18)">
     <use xlink:href="#DejaVuSans-35"/>
     <use x="63.623047" xlink:href="#DejaVuSans-2e"/>
     <use x="95.410156" xlink:href="#DejaVuSans-30"/>
    </g>
   </g>
   <g id="patch_12">
    <path d="M 241.3059 206.998509 
Q 246.337856 202.56236 251.369812 198.126212 
Q 251.899558 204.813466 252.429303 211.50072 
z
" style="fill:#ff0000;stroke:#000000;stroke-linecap:round;"/>
   </g>
   <g id="text_20">
    <!-- 50.0 -->
    <g transform="translate(207.185264 221.948949)scale(0.18 -0.18)">
     <use xlink:href="#DejaVuSans-35"/>
     <use x="63.623047" xlink:href="#DejaVuSans-30"/>
     <use x="127.246094" xlink:href="#DejaVuSans-2e"/>
     <use x="159.033203" xlink:href="#DejaVuSans-30"/>
    </g>
   </g>
   <g id="patch_13">
    <path d="M 422.721028 222.028754 
Q 423.22136 221.676623 423.721693 221.324492 
L 421.419523 218.053405 
Q 428.053104 217.053238 434.686686 216.053071 
Q 431.506359 221.959869 428.326033 227.866667 
L 426.023863 224.59558 
Q 425.52353 224.94771 425.023198 225.299841 
L 422.721028 222.028754 
z
" style="fill:#00bfbf;stroke:#000000;stroke-linecap:round;"/>
   </g>
   <g id="text_21">
    <!-- 1.0 -->
    <g transform="translate(391.650529 239.872297)scale(0.18 -0.18)">
     <use xlink:href="#DejaVuSans-31"/>
     <use x="63.623047" xlink:href="#DejaVuSans-2e"/>
     <use x="95.410156" xlink:href="#DejaVuSans-30"/>
    </g>
   </g>
   <g id="patch_14">
    <path d="M 465.823742 224.921857 
Q 470.855698 220.485709 475.887655 216.04956 
Q 476.4174 222.736814 476.947145 229.424068 
z
" style="fill:#00bfbf;stroke:#000000;stroke-linecap:round;"/>
   </g>
   <g id="text_22">
    <!-- 25.0 -->
    <g transform="translate(431.703106 239.872297)scale(0.18 -0.18)">
     <use xlink:href="#DejaVuSans-32"/>
     <use x="63.623047" xlink:href="#DejaVuSans-35"/>
     <use x="127.246094" xlink:href="#DejaVuSans-2e"/>
     <use x="159.033203" xlink:href="#DejaVuSans-30"/>
    </g>
   </g>
   <g id="text_23">
    <!-- attacker type 16 (10.0% attackers) -->
    <defs>
     <path d="M 34.28125 27.484375 
Q 23.390625 27.484375 19.1875 25 
Q 14.984375 22.515625 14.984375 16.5 
Q 14.984375 11.71875 18.140625 8.90625 
Q 21.296875 6.109375 26.703125 6.109375 
Q 34.1875 6.109375 38.703125 11.40625 
Q 43.21875 16.703125 43.21875 25.484375 
L 43.21875 27.484375 
z
M 52.203125 31.203125 
L 52.203125 0 
L 43.21875 0 
L 43.21875 8.296875 
Q 40.140625 3.328125 35.546875 0.953125 
Q 30.953125 -1.421875 24.3125 -1.421875 
Q 15.921875 -1.421875 10.953125 3.296875 
Q 6 8.015625 6 15.921875 
Q 6 25.140625 12.171875 29.828125 
Q 18.359375 34.515625 30.609375 34.515625 
L 43.21875 34.515625 
L 43.21875 35.40625 
Q 43.21875 41.609375 39.140625 45 
Q 35.0625 48.390625 27.6875 48.390625 
Q 23 48.390625 18.546875 47.265625 
Q 14.109375 46.140625 10.015625 43.890625 
L 10.015625 52.203125 
Q 14.9375 54.109375 19.578125 55.046875 
Q 24.21875 56 28.609375 56 
Q 40.484375 56 46.34375 49.84375 
Q 52.203125 43.703125 52.203125 31.203125 
" id="DejaVuSans-61"/>
     <path d="M 18.3125 70.21875 
L 18.3125 54.6875 
L 36.8125 54.6875 
L 36.8125 47.703125 
L 18.3125 47.703125 
L 18.3125 18.015625 
Q 18.3125 11.328125 20.140625 9.421875 
Q 21.96875 7.515625 27.59375 7.515625 
L 36.8125 7.515625 
L 36.8125 0 
L 27.59375 0 
Q 17.1875 0 13.234375 3.875 
Q 9.28125 7.765625 9.28125 18.015625 
L 9.28125 47.703125 
L 2.6875 47.703125 
L 2.6875 54.6875 
L 9.28125 54.6875 
L 9.28125 70.21875 
z
" id="DejaVuSans-74"/>
     <path d="M 48.78125 52.59375 
L 48.78125 44.1875 
Q 44.96875 46.296875 41.140625 47.34375 
Q 37.3125 48.390625 33.40625 48.390625 
Q 24.65625 48.390625 19.8125 42.84375 
Q 14.984375 37.3125 14.984375 27.296875 
Q 14.984375 17.28125 19.8125 11.734375 
Q 24.65625 6.203125 33.40625 6.203125 
Q 37.3125 6.203125 41.140625 7.25 
Q 44.96875 8.296875 48.78125 10.40625 
L 48.78125 2.09375 
Q 45.015625 0.34375 40.984375 -0.53125 
Q 36.96875 -1.421875 32.421875 -1.421875 
Q 20.0625 -1.421875 12.78125 6.34375 
Q 5.515625 14.109375 5.515625 27.296875 
Q 5.515625 40.671875 12.859375 48.328125 
Q 20.21875 56 33.015625 56 
Q 37.15625 56 41.109375 55.140625 
Q 45.0625 54.296875 48.78125 52.59375 
" id="DejaVuSans-63"/>
     <path d="M 9.078125 75.984375 
L 18.109375 75.984375 
L 18.109375 31.109375 
L 44.921875 54.6875 
L 56.390625 54.6875 
L 27.390625 29.109375 
L 57.625 0 
L 45.90625 0 
L 18.109375 26.703125 
L 18.109375 0 
L 9.078125 0 
z
" id="DejaVuSans-6b"/>
     <path d="M 32.171875 -5.078125 
Q 28.375 -14.84375 24.75 -17.8125 
Q 21.140625 -20.796875 15.09375 -20.796875 
L 7.90625 -20.796875 
L 7.90625 -13.28125 
L 13.1875 -13.28125 
Q 16.890625 -13.28125 18.9375 -11.515625 
Q 21 -9.765625 23.484375 -3.21875 
L 25.09375 0.875 
L 2.984375 54.6875 
L 12.5 54.6875 
L 29.59375 11.921875 
L 46.6875 54.6875 
L 56.203125 54.6875 
z
" id="DejaVuSans-79"/>
     <path d="M 72.703125 32.078125 
Q 68.453125 32.078125 66.03125 28.46875 
Q 63.625 24.859375 63.625 18.40625 
Q 63.625 12.0625 66.03125 8.421875 
Q 68.453125 4.78125 72.703125 4.78125 
Q 76.859375 4.78125 79.265625 8.421875 
Q 81.6875 12.0625 81.6875 18.40625 
Q 81.6875 24.8125 79.265625 28.4375 
Q 76.859375 32.078125 72.703125 32.078125 
M 72.703125 38.28125 
Q 80.421875 38.28125 84.953125 32.90625 
Q 89.5 27.546875 89.5 18.40625 
Q 89.5 9.28125 84.9375 3.921875 
Q 80.375 -1.421875 72.703125 -1.421875 
Q 64.890625 -1.421875 60.34375 3.921875 
Q 55.8125 9.28125 55.8125 18.40625 
Q 55.8125 27.59375 60.375 32.9375 
Q 64.9375 38.28125 72.703125 38.28125 
M 22.3125 68.015625 
Q 18.109375 68.015625 15.6875 64.375 
Q 13.28125 60.75 13.28125 54.390625 
Q 13.28125 47.953125 15.671875 44.328125 
Q 18.0625 40.71875 22.3125 40.71875 
Q 26.5625 40.71875 28.96875 44.328125 
Q 31.390625 47.953125 31.390625 54.390625 
Q 31.390625 60.6875 28.953125 64.34375 
Q 26.515625 68.015625 22.3125 68.015625 
M 66.40625 74.21875 
L 74.21875 74.21875 
L 28.609375 -1.421875 
L 20.796875 -1.421875 
z
M 22.3125 74.21875 
Q 30.03125 74.21875 34.609375 68.875 
Q 39.203125 63.53125 39.203125 54.390625 
Q 39.203125 45.171875 34.640625 39.84375 
Q 30.078125 34.515625 22.3125 34.515625 
Q 14.546875 34.515625 10.03125 39.859375 
Q 5.515625 45.21875 5.515625 54.390625 
Q 5.515625 63.484375 10.046875 68.84375 
Q 14.59375 74.21875 22.3125 74.21875 
" id="DejaVuSans-25"/>
    </defs>
    <g transform="translate(123.283688 64.92)scale(0.216 -0.216)">
     <use xlink:href="#DejaVuSans-61"/>
     <use x="61.279297" xlink:href="#DejaVuSans-74"/>
     <use x="100.488281" xlink:href="#DejaVuSans-74"/>
     <use x="139.697266" xlink:href="#DejaVuSans-61"/>
     <use x="200.976562" xlink:href="#DejaVuSans-63"/>
     <use x="255.957031" xlink:href="#DejaVuSans-6b"/>
     <use x="313.820312" xlink:href="#DejaVuSans-65"/>
     <use x="375.34375" xlink:href="#DejaVuSans-72"/>
     <use x="416.457031" xlink:href="#DejaVuSans-20"/>
     <use x="448.244141" xlink:href="#DejaVuSans-74"/>
     <use x="487.453125" xlink:href="#DejaVuSans-79"/>
     <use x="546.632812" xlink:href="#DejaVuSans-70"/>
     <use x="610.109375" xlink:href="#DejaVuSans-65"/>
     <use x="671.632812" xlink:href="#DejaVuSans-20"/>
     <use x="703.419922" xlink:href="#DejaVuSans-31"/>
     <use x="767.042969" xlink:href="#DejaVuSans-36"/>
     <use x="830.666016" xlink:href="#DejaVuSans-20"/>
     <use x="862.453125" xlink:href="#DejaVuSans-28"/>
     <use x="901.466797" xlink:href="#DejaVuSans-31"/>
     <use x="965.089844" xlink:href="#DejaVuSans-30"/>
     <use x="1028.712891" xlink:href="#DejaVuSans-2e"/>
     <use x="1060.5" xlink:href="#DejaVuSans-30"/>
     <use x="1124.123047" xlink:href="#DejaVuSans-25"/>
     <use x="1219.142578" xlink:href="#DejaVuSans-20"/>
     <use x="1250.929688" xlink:href="#DejaVuSans-61"/>
     <use x="1312.208984" xlink:href="#DejaVuSans-74"/>
     <use x="1351.417969" xlink:href="#DejaVuSans-74"/>
     <use x="1390.626953" xlink:href="#DejaVuSans-61"/>
     <use x="1451.90625" xlink:href="#DejaVuSans-63"/>
     <use x="1506.886719" xlink:href="#DejaVuSans-6b"/>
     <use x="1564.75" xlink:href="#DejaVuSans-65"/>
     <use x="1626.273438" xlink:href="#DejaVuSans-72"/>
     <use x="1667.386719" xlink:href="#DejaVuSans-73"/>
     <use x="1719.486328" xlink:href="#DejaVuSans-29"/>
    </g>
   </g>
   <g id="legend_1">
    <g id="patch_15">
     <path d="M 549 251.20125 
L 659.379375 251.20125 
Q 662.979375 251.20125 662.979375 247.60125 
L 662.979375 143.71875 
Q 662.979375 140.11875 659.379375 140.11875 
L 549 140.11875 
Q 545.4 140.11875 545.4 143.71875 
L 545.4 247.60125 
Q 545.4 251.20125 549 251.20125 
z
" style="fill:#ffffff;opacity:0.8;stroke:#cccccc;stroke-linejoin:miter;"/>
    </g>
    <g id="LineCollection_9">
     <path d="M 561.6 154.695937 
L 579.6 154.695937 
" style="fill:none;stroke:#0000ff;stroke-width:1.5;"/>
    </g>
    <g id="LineCollection_10">
     <path d="M 570.6 163.695937 
L 570.6 145.695937 
" style="fill:none;stroke:#0000ff;stroke-width:1.5;"/>
    </g>
    <g id="line2d_17">
     <path d="M 552.6 154.695937 
L 588.6 154.695937 
" style="fill:none;stroke:#0000ff;stroke-dasharray:5.6,2.4;stroke-dashoffset:0;stroke-width:1.5;"/>
    </g>
    <g id="line2d_18">
     <g>
      <use style="fill:#0000ff;stroke:#0000ff;" x="570.6" xlink:href="#ma84a1c5565" y="154.695937"/>
     </g>
    </g>
    <g id="text_24">
     <!-- eART -->
     <defs>
      <path d="M 34.1875 63.1875 
L 20.796875 26.90625 
L 47.609375 26.90625 
z
M 28.609375 72.90625 
L 39.796875 72.90625 
L 67.578125 0 
L 57.328125 0 
L 50.6875 18.703125 
L 17.828125 18.703125 
L 11.1875 0 
L 0.78125 0 
z
" id="DejaVuSans-41"/>
      <path d="M -0.296875 72.90625 
L 61.375 72.90625 
L 61.375 64.59375 
L 35.5 64.59375 
L 35.5 0 
L 25.59375 0 
L 25.59375 64.59375 
L -0.296875 64.59375 
z
" id="DejaVuSans-54"/>
     </defs>
     <g transform="translate(603 160.995937)scale(0.18 -0.18)">
      <use xlink:href="#DejaVuSans-65"/>
      <use x="61.523438" xlink:href="#DejaVuSans-41"/>
      <use x="129.931641" xlink:href="#DejaVuSans-52"/>
      <use x="199.304688" xlink:href="#DejaVuSans-54"/>
     </g>
    </g>
    <g id="LineCollection_11">
     <path d="M 561.6 181.116562 
L 579.6 181.116562 
" style="fill:none;stroke:#008000;stroke-width:1.5;"/>
    </g>
    <g id="LineCollection_12">
     <path d="M 570.6 190.116562 
L 570.6 172.116562 
" style="fill:none;stroke:#008000;stroke-width:1.5;"/>
    </g>
    <g id="line2d_19">
     <path d="M 552.6 181.116562 
L 588.6 181.116562 
" style="fill:none;stroke:#008000;stroke-dasharray:5.6,2.4;stroke-dashoffset:0;stroke-width:1.5;"/>
    </g>
    <g id="line2d_20">
     <g>
      <use style="fill:#008000;stroke:#008000;" x="570.6" xlink:href="#m0a8b992f9c" y="181.116562"/>
     </g>
    </g>
    <g id="text_25">
     <!-- eSAW -->
     <defs>
      <path d="M 53.515625 70.515625 
L 53.515625 60.890625 
Q 47.90625 63.578125 42.921875 64.890625 
Q 37.9375 66.21875 33.296875 66.21875 
Q 25.25 66.21875 20.875 63.09375 
Q 16.5 59.96875 16.5 54.203125 
Q 16.5 49.359375 19.40625 46.890625 
Q 22.3125 44.4375 30.421875 42.921875 
L 36.375 41.703125 
Q 47.40625 39.59375 52.65625 34.296875 
Q 57.90625 29 57.90625 20.125 
Q 57.90625 9.515625 50.796875 4.046875 
Q 43.703125 -1.421875 29.984375 -1.421875 
Q 24.8125 -1.421875 18.96875 -0.25 
Q 13.140625 0.921875 6.890625 3.21875 
L 6.890625 13.375 
Q 12.890625 10.015625 18.65625 8.296875 
Q 24.421875 6.59375 29.984375 6.59375 
Q 38.421875 6.59375 43.015625 9.90625 
Q 47.609375 13.234375 47.609375 19.390625 
Q 47.609375 24.75 44.3125 27.78125 
Q 41.015625 30.8125 33.5 32.328125 
L 27.484375 33.5 
Q 16.453125 35.6875 11.515625 40.375 
Q 6.59375 45.0625 6.59375 53.421875 
Q 6.59375 63.09375 13.40625 68.65625 
Q 20.21875 74.21875 32.171875 74.21875 
Q 37.3125 74.21875 42.625 73.28125 
Q 47.953125 72.359375 53.515625 70.515625 
" id="DejaVuSans-53"/>
      <path d="M 3.328125 72.90625 
L 13.28125 72.90625 
L 28.609375 11.28125 
L 43.890625 72.90625 
L 54.984375 72.90625 
L 70.3125 11.28125 
L 85.59375 72.90625 
L 95.609375 72.90625 
L 77.296875 0 
L 64.890625 0 
L 49.515625 63.28125 
L 33.984375 0 
L 21.578125 0 
z
" id="DejaVuSans-57"/>
     </defs>
     <g transform="translate(603 187.416562)scale(0.18 -0.18)">
      <use xlink:href="#DejaVuSans-65"/>
      <use x="61.523438" xlink:href="#DejaVuSans-53"/>
      <use x="125.015625" xlink:href="#DejaVuSans-41"/>
      <use x="193.345703" xlink:href="#DejaVuSans-57"/>
     </g>
    </g>
    <g id="LineCollection_13">
     <path d="M 561.6 207.537187 
L 579.6 207.537187 
" style="fill:none;stroke:#ff0000;stroke-width:1.5;"/>
    </g>
    <g id="LineCollection_14">
     <path d="M 570.6 216.537187 
L 570.6 198.537187 
" style="fill:none;stroke:#ff0000;stroke-width:1.5;"/>
    </g>
    <g id="line2d_21">
     <path d="M 552.6 207.537187 
L 588.6 207.537187 
" style="fill:none;stroke:#ff0000;stroke-dasharray:5.6,2.4;stroke-dashoffset:0;stroke-width:1.5;"/>
    </g>
    <g id="line2d_22">
     <g>
      <use style="fill:#ff0000;stroke:#ff0000;" x="570.6" xlink:href="#m8bf04eef0c" y="207.537187"/>
     </g>
    </g>
    <g id="text_26">
     <!-- eSSC -->
     <defs>
      <path d="M 64.40625 67.28125 
L 64.40625 56.890625 
Q 59.421875 61.53125 53.78125 63.8125 
Q 48.140625 66.109375 41.796875 66.109375 
Q 29.296875 66.109375 22.65625 58.46875 
Q 16.015625 50.828125 16.015625 36.375 
Q 16.015625 21.96875 22.65625 14.328125 
Q 29.296875 6.6875 41.796875 6.6875 
Q 48.140625 6.6875 53.78125 8.984375 
Q 59.421875 11.28125 64.40625 15.921875 
L 64.40625 5.609375 
Q 59.234375 2.09375 53.4375 0.328125 
Q 47.65625 -1.421875 41.21875 -1.421875 
Q 24.65625 -1.421875 15.125 8.703125 
Q 5.609375 18.84375 5.609375 36.375 
Q 5.609375 53.953125 15.125 64.078125 
Q 24.65625 74.21875 41.21875 74.21875 
Q 47.75 74.21875 53.53125 72.484375 
Q 59.328125 70.75 64.40625 67.28125 
" id="DejaVuSans-43"/>
     </defs>
     <g transform="translate(603 213.837187)scale(0.18 -0.18)">
      <use xlink:href="#DejaVuSans-65"/>
      <use x="61.523438" xlink:href="#DejaVuSans-53"/>
      <use x="125" xlink:href="#DejaVuSans-53"/>
      <use x="188.476562" xlink:href="#DejaVuSans-43"/>
     </g>
    </g>
    <g id="LineCollection_15">
     <path d="M 561.6 233.957812 
L 579.6 233.957812 
" style="fill:none;stroke:#00bfbf;stroke-width:1.5;"/>
    </g>
    <g id="LineCollection_16">
     <path d="M 570.6 242.957812 
L 570.6 224.957812 
" style="fill:none;stroke:#00bfbf;stroke-width:1.5;"/>
    </g>
    <g id="line2d_23">
     <path d="M 552.6 233.957812 
L 588.6 233.957812 
" style="fill:none;stroke:#00bfbf;stroke-dasharray:5.6,2.4;stroke-dashoffset:0;stroke-width:1.5;"/>
    </g>
    <g id="line2d_24">
     <g>
      <use style="fill:#00bfbf;stroke:#00bfbf;" x="570.6" xlink:href="#m3b43510e8c" y="233.957812"/>
     </g>
    </g>
    <g id="text_27">
     <!-- eDMV -->
     <defs>
      <path d="M 19.671875 64.796875 
L 19.671875 8.109375 
L 31.59375 8.109375 
Q 46.6875 8.109375 53.6875 14.9375 
Q 60.6875 21.78125 60.6875 36.53125 
Q 60.6875 51.171875 53.6875 57.984375 
Q 46.6875 64.796875 31.59375 64.796875 
z
M 9.8125 72.90625 
L 30.078125 72.90625 
Q 51.265625 72.90625 61.171875 64.09375 
Q 71.09375 55.28125 71.09375 36.53125 
Q 71.09375 17.671875 61.125 8.828125 
Q 51.171875 0 30.078125 0 
L 9.8125 0 
z
" id="DejaVuSans-44"/>
      <path d="M 9.8125 72.90625 
L 24.515625 72.90625 
L 43.109375 23.296875 
L 61.8125 72.90625 
L 76.515625 72.90625 
L 76.515625 0 
L 66.890625 0 
L 66.890625 64.015625 
L 48.09375 14.015625 
L 38.1875 14.015625 
L 19.390625 64.015625 
L 19.390625 0 
L 9.8125 0 
z
" id="DejaVuSans-4d"/>
      <path d="M 28.609375 0 
L 0.78125 72.90625 
L 11.078125 72.90625 
L 34.1875 11.53125 
L 57.328125 72.90625 
L 67.578125 72.90625 
L 39.796875 0 
z
" id="DejaVuSans-56"/>
     </defs>
     <g transform="translate(603 240.257812)scale(0.18 -0.18)">
      <use xlink:href="#DejaVuSans-65"/>
      <use x="61.523438" xlink:href="#DejaVuSans-44"/>
      <use x="138.525391" xlink:href="#DejaVuSans-4d"/>
      <use x="224.804688" xlink:href="#DejaVuSans-56"/>
     </g>
    </g>
   </g>
  </g>
 </g>
 <defs>
  <clipPath id="p89feb3f468">
   <rect height="249.48" width="446.4" x="90" y="70.92"/>
  </clipPath>
 </defs>
</svg>
