<?xml version="1.0" encoding="utf-8" standalone="no"?>
<!DOCTYPE svg PUBLIC "-//W3C//DTD SVG 1.1//EN"
  "http://www.w3.org/Graphics/SVG/1.1/DTD/svg11.dtd">
<!-- Created with matplotlib (http://matplotlib.org/) -->
<svg height="360pt" version="1.1" viewBox="0 0 720 360" width="720pt" xmlns="http://www.w3.org/2000/svg" xmlns:xlink="http://www.w3.org/1999/xlink">
 <defs>
  <style type="text/css">
*{stroke-linecap:butt;stroke-linejoin:round;}
  </style>
 </defs>
 <g id="figure_1">
  <g id="patch_1">
   <path d="M 0 360 
L 720 360 
L 720 0 
L 0 0 
z
" style="fill:#ffffff;"/>
  </g>
  <g id="axes_1">
   <g id="patch_2">
    <path d="M 90 320.4 
L 536.4 320.4 
L 536.4 70.92 
L 90 70.92 
z
" style="fill:#ffffff;"/>
   </g>
   <g id="matplotlib.axis_1">
    <g id="xtick_1">
     <g id="line2d_1">
      <defs>
       <path d="M 0 0 
L 0 3.5 
" id="m82ff66e045" style="stroke:#000000;stroke-width:0.8;"/>
      </defs>
      <g>
       <use style="stroke:#000000;stroke-width:0.8;" x="90" xlink:href="#m82ff66e045" y="320.4"/>
      </g>
     </g>
     <g id="text_1">
      <!-- 0.0 -->
      <defs>
       <path d="M 31.78125 66.40625 
Q 24.171875 66.40625 20.328125 58.90625 
Q 16.5 51.421875 16.5 36.375 
Q 16.5 21.390625 20.328125 13.890625 
Q 24.171875 6.390625 31.78125 6.390625 
Q 39.453125 6.390625 43.28125 13.890625 
Q 47.125 21.390625 47.125 36.375 
Q 47.125 51.421875 43.28125 58.90625 
Q 39.453125 66.40625 31.78125 66.40625 
M 31.78125 74.21875 
Q 44.046875 74.21875 50.515625 64.515625 
Q 56.984375 54.828125 56.984375 36.375 
Q 56.984375 17.96875 50.515625 8.265625 
Q 44.046875 -1.421875 31.78125 -1.421875 
Q 19.53125 -1.421875 13.0625 8.265625 
Q 6.59375 17.96875 6.59375 36.375 
Q 6.59375 54.828125 13.0625 64.515625 
Q 19.53125 74.21875 31.78125 74.21875 
" id="DejaVuSans-30"/>
       <path d="M 10.6875 12.40625 
L 21 12.40625 
L 21 0 
L 10.6875 0 
z
" id="DejaVuSans-2e"/>
      </defs>
      <g transform="translate(75.687187 341.077187)scale(0.18 -0.18)">
       <use xlink:href="#DejaVuSans-30"/>
       <use x="63.623047" xlink:href="#DejaVuSans-2e"/>
       <use x="95.410156" xlink:href="#DejaVuSans-30"/>
      </g>
     </g>
    </g>
    <g id="xtick_2">
     <g id="line2d_2">
      <g>
       <use style="stroke:#000000;stroke-width:0.8;" x="179.28" xlink:href="#m82ff66e045" y="320.4"/>
      </g>
     </g>
     <g id="text_2">
      <!-- 0.2 -->
      <defs>
       <path d="M 19.1875 8.296875 
L 53.609375 8.296875 
L 53.609375 0 
L 7.328125 0 
L 7.328125 8.296875 
Q 12.9375 14.109375 22.625 23.890625 
Q 32.328125 33.6875 34.8125 36.53125 
Q 39.546875 41.84375 41.421875 45.53125 
Q 43.3125 49.21875 43.3125 52.78125 
Q 43.3125 58.59375 39.234375 62.25 
Q 35.15625 65.921875 28.609375 65.921875 
Q 23.96875 65.921875 18.8125 64.3125 
Q 13.671875 62.703125 7.8125 59.421875 
L 7.8125 69.390625 
Q 13.765625 71.78125 18.9375 73 
Q 24.125 74.21875 28.421875 74.21875 
Q 39.75 74.21875 46.484375 68.546875 
Q 53.21875 62.890625 53.21875 53.421875 
Q 53.21875 48.921875 51.53125 44.890625 
Q 49.859375 40.875 45.40625 35.40625 
Q 44.1875 33.984375 37.640625 27.21875 
Q 31.109375 20.453125 19.1875 8.296875 
" id="DejaVuSans-32"/>
      </defs>
      <g transform="translate(164.967188 341.077187)scale(0.18 -0.18)">
       <use xlink:href="#DejaVuSans-30"/>
       <use x="63.623047" xlink:href="#DejaVuSans-2e"/>
       <use x="95.410156" xlink:href="#DejaVuSans-32"/>
      </g>
     </g>
    </g>
    <g id="xtick_3">
     <g id="line2d_3">
      <g>
       <use style="stroke:#000000;stroke-width:0.8;" x="268.56" xlink:href="#m82ff66e045" y="320.4"/>
      </g>
     </g>
     <g id="text_3">
      <!-- 0.4 -->
      <defs>
       <path d="M 37.796875 64.3125 
L 12.890625 25.390625 
L 37.796875 25.390625 
z
M 35.203125 72.90625 
L 47.609375 72.90625 
L 47.609375 25.390625 
L 58.015625 25.390625 
L 58.015625 17.1875 
L 47.609375 17.1875 
L 47.609375 0 
L 37.796875 0 
L 37.796875 17.1875 
L 4.890625 17.1875 
L 4.890625 26.703125 
z
" id="DejaVuSans-34"/>
      </defs>
      <g transform="translate(254.247188 341.077187)scale(0.18 -0.18)">
       <use xlink:href="#DejaVuSans-30"/>
       <use x="63.623047" xlink:href="#DejaVuSans-2e"/>
       <use x="95.410156" xlink:href="#DejaVuSans-34"/>
      </g>
     </g>
    </g>
    <g id="xtick_4">
     <g id="line2d_4">
      <g>
       <use style="stroke:#000000;stroke-width:0.8;" x="357.84" xlink:href="#m82ff66e045" y="320.4"/>
      </g>
     </g>
     <g id="text_4">
      <!-- 0.6 -->
      <defs>
       <path d="M 33.015625 40.375 
Q 26.375 40.375 22.484375 35.828125 
Q 18.609375 31.296875 18.609375 23.390625 
Q 18.609375 15.53125 22.484375 10.953125 
Q 26.375 6.390625 33.015625 6.390625 
Q 39.65625 6.390625 43.53125 10.953125 
Q 47.40625 15.53125 47.40625 23.390625 
Q 47.40625 31.296875 43.53125 35.828125 
Q 39.65625 40.375 33.015625 40.375 
M 52.59375 71.296875 
L 52.59375 62.3125 
Q 48.875 64.0625 45.09375 64.984375 
Q 41.3125 65.921875 37.59375 65.921875 
Q 27.828125 65.921875 22.671875 59.328125 
Q 17.53125 52.734375 16.796875 39.40625 
Q 19.671875 43.65625 24.015625 45.921875 
Q 28.375 48.1875 33.59375 48.1875 
Q 44.578125 48.1875 50.953125 41.515625 
Q 57.328125 34.859375 57.328125 23.390625 
Q 57.328125 12.15625 50.6875 5.359375 
Q 44.046875 -1.421875 33.015625 -1.421875 
Q 20.359375 -1.421875 13.671875 8.265625 
Q 6.984375 17.96875 6.984375 36.375 
Q 6.984375 53.65625 15.1875 63.9375 
Q 23.390625 74.21875 37.203125 74.21875 
Q 40.921875 74.21875 44.703125 73.484375 
Q 48.484375 72.75 52.59375 71.296875 
" id="DejaVuSans-36"/>
      </defs>
      <g transform="translate(343.527188 341.077187)scale(0.18 -0.18)">
       <use xlink:href="#DejaVuSans-30"/>
       <use x="63.623047" xlink:href="#DejaVuSans-2e"/>
       <use x="95.410156" xlink:href="#DejaVuSans-36"/>
      </g>
     </g>
    </g>
    <g id="xtick_5">
     <g id="line2d_5">
      <g>
       <use style="stroke:#000000;stroke-width:0.8;" x="447.12" xlink:href="#m82ff66e045" y="320.4"/>
      </g>
     </g>
     <g id="text_5">
      <!-- 0.8 -->
      <defs>
       <path d="M 31.78125 34.625 
Q 24.75 34.625 20.71875 30.859375 
Q 16.703125 27.09375 16.703125 20.515625 
Q 16.703125 13.921875 20.71875 10.15625 
Q 24.75 6.390625 31.78125 6.390625 
Q 38.8125 6.390625 42.859375 10.171875 
Q 46.921875 13.96875 46.921875 20.515625 
Q 46.921875 27.09375 42.890625 30.859375 
Q 38.875 34.625 31.78125 34.625 
M 21.921875 38.8125 
Q 15.578125 40.375 12.03125 44.71875 
Q 8.5 49.078125 8.5 55.328125 
Q 8.5 64.0625 14.71875 69.140625 
Q 20.953125 74.21875 31.78125 74.21875 
Q 42.671875 74.21875 48.875 69.140625 
Q 55.078125 64.0625 55.078125 55.328125 
Q 55.078125 49.078125 51.53125 44.71875 
Q 48 40.375 41.703125 38.8125 
Q 48.828125 37.15625 52.796875 32.3125 
Q 56.78125 27.484375 56.78125 20.515625 
Q 56.78125 9.90625 50.3125 4.234375 
Q 43.84375 -1.421875 31.78125 -1.421875 
Q 19.734375 -1.421875 13.25 4.234375 
Q 6.78125 9.90625 6.78125 20.515625 
Q 6.78125 27.484375 10.78125 32.3125 
Q 14.796875 37.15625 21.921875 38.8125 
M 18.3125 54.390625 
Q 18.3125 48.734375 21.84375 45.5625 
Q 25.390625 42.390625 31.78125 42.390625 
Q 38.140625 42.390625 41.71875 45.5625 
Q 45.3125 48.734375 45.3125 54.390625 
Q 45.3125 60.0625 41.71875 63.234375 
Q 38.140625 66.40625 31.78125 66.40625 
Q 25.390625 66.40625 21.84375 63.234375 
Q 18.3125 60.0625 18.3125 54.390625 
" id="DejaVuSans-38"/>
      </defs>
      <g transform="translate(432.807188 341.077187)scale(0.18 -0.18)">
       <use xlink:href="#DejaVuSans-30"/>
       <use x="63.623047" xlink:href="#DejaVuSans-2e"/>
       <use x="95.410156" xlink:href="#DejaVuSans-38"/>
      </g>
     </g>
    </g>
    <g id="xtick_6">
     <g id="line2d_6">
      <g>
       <use style="stroke:#000000;stroke-width:0.8;" x="536.4" xlink:href="#m82ff66e045" y="320.4"/>
      </g>
     </g>
     <g id="text_6">
      <!-- 1.0 -->
      <defs>
       <path d="M 12.40625 8.296875 
L 28.515625 8.296875 
L 28.515625 63.921875 
L 10.984375 60.40625 
L 10.984375 69.390625 
L 28.421875 72.90625 
L 38.28125 72.90625 
L 38.28125 8.296875 
L 54.390625 8.296875 
L 54.390625 0 
L 12.40625 0 
z
" id="DejaVuSans-31"/>
      </defs>
      <g transform="translate(522.087188 341.077187)scale(0.18 -0.18)">
       <use xlink:href="#DejaVuSans-31"/>
       <use x="63.623047" xlink:href="#DejaVuSans-2e"/>
       <use x="95.410156" xlink:href="#DejaVuSans-30"/>
      </g>
     </g>
    </g>
    <g id="text_7">
     <!-- recall -->
     <defs>
      <path d="M 41.109375 46.296875 
Q 39.59375 47.171875 37.8125 47.578125 
Q 36.03125 48 33.890625 48 
Q 26.265625 48 22.1875 43.046875 
Q 18.109375 38.09375 18.109375 28.8125 
L 18.109375 0 
L 9.078125 0 
L 9.078125 54.6875 
L 18.109375 54.6875 
L 18.109375 46.1875 
Q 20.953125 51.171875 25.484375 53.578125 
Q 30.03125 56 36.53125 56 
Q 37.453125 56 38.578125 55.875 
Q 39.703125 55.765625 41.0625 55.515625 
z
" id="DejaVuSans-72"/>
      <path d="M 56.203125 29.59375 
L 56.203125 25.203125 
L 14.890625 25.203125 
Q 15.484375 15.921875 20.484375 11.0625 
Q 25.484375 6.203125 34.421875 6.203125 
Q 39.59375 6.203125 44.453125 7.46875 
Q 49.3125 8.734375 54.109375 11.28125 
L 54.109375 2.78125 
Q 49.265625 0.734375 44.1875 -0.34375 
Q 39.109375 -1.421875 33.890625 -1.421875 
Q 20.796875 -1.421875 13.15625 6.1875 
Q 5.515625 13.8125 5.515625 26.8125 
Q 5.515625 40.234375 12.765625 48.109375 
Q 20.015625 56 32.328125 56 
Q 43.359375 56 49.78125 48.890625 
Q 56.203125 41.796875 56.203125 29.59375 
M 47.21875 32.234375 
Q 47.125 39.59375 43.09375 43.984375 
Q 39.0625 48.390625 32.421875 48.390625 
Q 24.90625 48.390625 20.390625 44.140625 
Q 15.875 39.890625 15.1875 32.171875 
z
" id="DejaVuSans-65"/>
      <path d="M 48.78125 52.59375 
L 48.78125 44.1875 
Q 44.96875 46.296875 41.140625 47.34375 
Q 37.3125 48.390625 33.40625 48.390625 
Q 24.65625 48.390625 19.8125 42.84375 
Q 14.984375 37.3125 14.984375 27.296875 
Q 14.984375 17.28125 19.8125 11.734375 
Q 24.65625 6.203125 33.40625 6.203125 
Q 37.3125 6.203125 41.140625 7.25 
Q 44.96875 8.296875 48.78125 10.40625 
L 48.78125 2.09375 
Q 45.015625 0.34375 40.984375 -0.53125 
Q 36.96875 -1.421875 32.421875 -1.421875 
Q 20.0625 -1.421875 12.78125 6.34375 
Q 5.515625 14.109375 5.515625 27.296875 
Q 5.515625 40.671875 12.859375 48.328125 
Q 20.21875 56 33.015625 56 
Q 37.15625 56 41.109375 55.140625 
Q 45.0625 54.296875 48.78125 52.59375 
" id="DejaVuSans-63"/>
      <path d="M 34.28125 27.484375 
Q 23.390625 27.484375 19.1875 25 
Q 14.984375 22.515625 14.984375 16.5 
Q 14.984375 11.71875 18.140625 8.90625 
Q 21.296875 6.109375 26.703125 6.109375 
Q 34.1875 6.109375 38.703125 11.40625 
Q 43.21875 16.703125 43.21875 25.484375 
L 43.21875 27.484375 
z
M 52.203125 31.203125 
L 52.203125 0 
L 43.21875 0 
L 43.21875 8.296875 
Q 40.140625 3.328125 35.546875 0.953125 
Q 30.953125 -1.421875 24.3125 -1.421875 
Q 15.921875 -1.421875 10.953125 3.296875 
Q 6 8.015625 6 15.921875 
Q 6 25.140625 12.171875 29.828125 
Q 18.359375 34.515625 30.609375 34.515625 
L 43.21875 34.515625 
L 43.21875 35.40625 
Q 43.21875 41.609375 39.140625 45 
Q 35.0625 48.390625 27.6875 48.390625 
Q 23 48.390625 18.546875 47.265625 
Q 14.109375 46.140625 10.015625 43.890625 
L 10.015625 52.203125 
Q 14.9375 54.109375 19.578125 55.046875 
Q 24.21875 56 28.609375 56 
Q 40.484375 56 46.34375 49.84375 
Q 52.203125 43.703125 52.203125 31.203125 
" id="DejaVuSans-61"/>
      <path d="M 9.421875 75.984375 
L 18.40625 75.984375 
L 18.40625 0 
L 9.421875 0 
z
" id="DejaVuSans-6c"/>
     </defs>
     <g transform="translate(288.500625 362.497813)scale(0.18 -0.18)">
      <use xlink:href="#DejaVuSans-72"/>
      <use x="41.082031" xlink:href="#DejaVuSans-65"/>
      <use x="102.605469" xlink:href="#DejaVuSans-63"/>
      <use x="157.585938" xlink:href="#DejaVuSans-61"/>
      <use x="218.865234" xlink:href="#DejaVuSans-6c"/>
      <use x="246.648438" xlink:href="#DejaVuSans-6c"/>
     </g>
    </g>
   </g>
   <g id="matplotlib.axis_2">
    <g id="ytick_1">
     <g id="line2d_7">
      <defs>
       <path d="M 0 0 
L -3.5 0 
" id="mcdf69294af" style="stroke:#000000;stroke-width:0.8;"/>
      </defs>
      <g>
       <use style="stroke:#000000;stroke-width:0.8;" x="90" xlink:href="#mcdf69294af" y="320.4"/>
      </g>
     </g>
     <g id="text_8">
      <!-- 0.0 -->
      <g transform="translate(54.374375 327.238594)scale(0.18 -0.18)">
       <use xlink:href="#DejaVuSans-30"/>
       <use x="63.623047" xlink:href="#DejaVuSans-2e"/>
       <use x="95.410156" xlink:href="#DejaVuSans-30"/>
      </g>
     </g>
    </g>
    <g id="ytick_2">
     <g id="line2d_8">
      <g>
       <use style="stroke:#000000;stroke-width:0.8;" x="90" xlink:href="#mcdf69294af" y="270.504"/>
      </g>
     </g>
     <g id="text_9">
      <!-- 0.2 -->
      <g transform="translate(54.374375 277.342594)scale(0.18 -0.18)">
       <use xlink:href="#DejaVuSans-30"/>
       <use x="63.623047" xlink:href="#DejaVuSans-2e"/>
       <use x="95.410156" xlink:href="#DejaVuSans-32"/>
      </g>
     </g>
    </g>
    <g id="ytick_3">
     <g id="line2d_9">
      <g>
       <use style="stroke:#000000;stroke-width:0.8;" x="90" xlink:href="#mcdf69294af" y="220.608"/>
      </g>
     </g>
     <g id="text_10">
      <!-- 0.4 -->
      <g transform="translate(54.374375 227.446594)scale(0.18 -0.18)">
       <use xlink:href="#DejaVuSans-30"/>
       <use x="63.623047" xlink:href="#DejaVuSans-2e"/>
       <use x="95.410156" xlink:href="#DejaVuSans-34"/>
      </g>
     </g>
    </g>
    <g id="ytick_4">
     <g id="line2d_10">
      <g>
       <use style="stroke:#000000;stroke-width:0.8;" x="90" xlink:href="#mcdf69294af" y="170.712"/>
      </g>
     </g>
     <g id="text_11">
      <!-- 0.6 -->
      <g transform="translate(54.374375 177.550594)scale(0.18 -0.18)">
       <use xlink:href="#DejaVuSans-30"/>
       <use x="63.623047" xlink:href="#DejaVuSans-2e"/>
       <use x="95.410156" xlink:href="#DejaVuSans-36"/>
      </g>
     </g>
    </g>
    <g id="ytick_5">
     <g id="line2d_11">
      <g>
       <use style="stroke:#000000;stroke-width:0.8;" x="90" xlink:href="#mcdf69294af" y="120.816"/>
      </g>
     </g>
     <g id="text_12">
      <!-- 0.8 -->
      <g transform="translate(54.374375 127.654594)scale(0.18 -0.18)">
       <use xlink:href="#DejaVuSans-30"/>
       <use x="63.623047" xlink:href="#DejaVuSans-2e"/>
       <use x="95.410156" xlink:href="#DejaVuSans-38"/>
      </g>
     </g>
    </g>
    <g id="ytick_6">
     <g id="line2d_12">
      <g>
       <use style="stroke:#000000;stroke-width:0.8;" x="90" xlink:href="#mcdf69294af" y="70.92"/>
      </g>
     </g>
     <g id="text_13">
      <!-- 1.0 -->
      <g transform="translate(54.374375 77.758594)scale(0.18 -0.18)">
       <use xlink:href="#DejaVuSans-31"/>
       <use x="63.623047" xlink:href="#DejaVuSans-2e"/>
       <use x="95.410156" xlink:href="#DejaVuSans-30"/>
      </g>
     </g>
    </g>
    <g id="text_14">
     <!-- precision -->
     <defs>
      <path d="M 18.109375 8.203125 
L 18.109375 -20.796875 
L 9.078125 -20.796875 
L 9.078125 54.6875 
L 18.109375 54.6875 
L 18.109375 46.390625 
Q 20.953125 51.265625 25.265625 53.625 
Q 29.59375 56 35.59375 56 
Q 45.5625 56 51.78125 48.09375 
Q 58.015625 40.1875 58.015625 27.296875 
Q 58.015625 14.40625 51.78125 6.484375 
Q 45.5625 -1.421875 35.59375 -1.421875 
Q 29.59375 -1.421875 25.265625 0.953125 
Q 20.953125 3.328125 18.109375 8.203125 
M 48.6875 27.296875 
Q 48.6875 37.203125 44.609375 42.84375 
Q 40.53125 48.484375 33.40625 48.484375 
Q 26.265625 48.484375 22.1875 42.84375 
Q 18.109375 37.203125 18.109375 27.296875 
Q 18.109375 17.390625 22.1875 11.75 
Q 26.265625 6.109375 33.40625 6.109375 
Q 40.53125 6.109375 44.609375 11.75 
Q 48.6875 17.390625 48.6875 27.296875 
" id="DejaVuSans-70"/>
      <path d="M 9.421875 54.6875 
L 18.40625 54.6875 
L 18.40625 0 
L 9.421875 0 
z
M 9.421875 75.984375 
L 18.40625 75.984375 
L 18.40625 64.59375 
L 9.421875 64.59375 
z
" id="DejaVuSans-69"/>
      <path d="M 44.28125 53.078125 
L 44.28125 44.578125 
Q 40.484375 46.53125 36.375 47.5 
Q 32.28125 48.484375 27.875 48.484375 
Q 21.1875 48.484375 17.84375 46.4375 
Q 14.5 44.390625 14.5 40.28125 
Q 14.5 37.15625 16.890625 35.375 
Q 19.28125 33.59375 26.515625 31.984375 
L 29.59375 31.296875 
Q 39.15625 29.25 43.1875 25.515625 
Q 47.21875 21.78125 47.21875 15.09375 
Q 47.21875 7.46875 41.1875 3.015625 
Q 35.15625 -1.421875 24.609375 -1.421875 
Q 20.21875 -1.421875 15.453125 -0.5625 
Q 10.6875 0.296875 5.421875 2 
L 5.421875 11.28125 
Q 10.40625 8.6875 15.234375 7.390625 
Q 20.0625 6.109375 24.8125 6.109375 
Q 31.15625 6.109375 34.5625 8.28125 
Q 37.984375 10.453125 37.984375 14.40625 
Q 37.984375 18.0625 35.515625 20.015625 
Q 33.0625 21.96875 24.703125 23.78125 
L 21.578125 24.515625 
Q 13.234375 26.265625 9.515625 29.90625 
Q 5.8125 33.546875 5.8125 39.890625 
Q 5.8125 47.609375 11.28125 51.796875 
Q 16.75 56 26.8125 56 
Q 31.78125 56 36.171875 55.265625 
Q 40.578125 54.546875 44.28125 53.078125 
" id="DejaVuSans-73"/>
      <path d="M 30.609375 48.390625 
Q 23.390625 48.390625 19.1875 42.75 
Q 14.984375 37.109375 14.984375 27.296875 
Q 14.984375 17.484375 19.15625 11.84375 
Q 23.34375 6.203125 30.609375 6.203125 
Q 37.796875 6.203125 41.984375 11.859375 
Q 46.1875 17.53125 46.1875 27.296875 
Q 46.1875 37.015625 41.984375 42.703125 
Q 37.796875 48.390625 30.609375 48.390625 
M 30.609375 56 
Q 42.328125 56 49.015625 48.375 
Q 55.71875 40.765625 55.71875 27.296875 
Q 55.71875 13.875 49.015625 6.21875 
Q 42.328125 -1.421875 30.609375 -1.421875 
Q 18.84375 -1.421875 12.171875 6.21875 
Q 5.515625 13.875 5.515625 27.296875 
Q 5.515625 40.765625 12.171875 48.375 
Q 18.84375 56 30.609375 56 
" id="DejaVuSans-6f"/>
      <path d="M 54.890625 33.015625 
L 54.890625 0 
L 45.90625 0 
L 45.90625 32.71875 
Q 45.90625 40.484375 42.875 44.328125 
Q 39.84375 48.1875 33.796875 48.1875 
Q 26.515625 48.1875 22.3125 43.546875 
Q 18.109375 38.921875 18.109375 30.90625 
L 18.109375 0 
L 9.078125 0 
L 9.078125 54.6875 
L 18.109375 54.6875 
L 18.109375 46.1875 
Q 21.34375 51.125 25.703125 53.5625 
Q 30.078125 56 35.796875 56 
Q 45.21875 56 50.046875 50.171875 
Q 54.890625 44.34375 54.890625 33.015625 
" id="DejaVuSans-6e"/>
     </defs>
     <g transform="translate(46.630938 236.456719)rotate(-90)scale(0.18 -0.18)">
      <use xlink:href="#DejaVuSans-70"/>
      <use x="63.476562" xlink:href="#DejaVuSans-72"/>
      <use x="104.558594" xlink:href="#DejaVuSans-65"/>
      <use x="166.082031" xlink:href="#DejaVuSans-63"/>
      <use x="221.0625" xlink:href="#DejaVuSans-69"/>
      <use x="248.845703" xlink:href="#DejaVuSans-73"/>
      <use x="300.945312" xlink:href="#DejaVuSans-69"/>
      <use x="328.728516" xlink:href="#DejaVuSans-6f"/>
      <use x="389.910156" xlink:href="#DejaVuSans-6e"/>
     </g>
    </g>
   </g>
   <g id="LineCollection_1">
    <path clip-path="url(#p62ec5d1cac)" d="M 457.562975 262.054051 
L 480.444668 262.054051 
" style="fill:none;stroke:#0000ff;stroke-width:1.5;"/>
    <path clip-path="url(#p62ec5d1cac)" d="M 380.568383 257.863775 
L 424.918901 257.863775 
" style="fill:none;stroke:#0000ff;stroke-width:1.5;"/>
    <path clip-path="url(#p62ec5d1cac)" d="M 318.145492 243.057947 
L 375.747959 243.057947 
" style="fill:none;stroke:#0000ff;stroke-width:1.5;"/>
    <path clip-path="url(#p62ec5d1cac)" d="M 258.741897 211.256025 
L 324.342113 211.256025 
" style="fill:none;stroke:#0000ff;stroke-width:1.5;"/>
    <path clip-path="url(#p62ec5d1cac)" d="M 229.563967 195.348441 
L 304.980236 195.348441 
" style="fill:none;stroke:#0000ff;stroke-width:1.5;"/>
    <path clip-path="url(#p62ec5d1cac)" d="M 203.779456 171.433871 
L 280.790055 171.433871 
" style="fill:none;stroke:#0000ff;stroke-width:1.5;"/>
    <path clip-path="url(#p62ec5d1cac)" d="M 178.111287 141.249828 
L 256.811357 141.249828 
" style="fill:none;stroke:#0000ff;stroke-width:1.5;"/>
    <path clip-path="url(#p62ec5d1cac)" d="M 150.347394 117.232556 
L 201.145948 117.232556 
" style="fill:none;stroke:#0000ff;stroke-width:1.5;"/>
    <path clip-path="url(#p62ec5d1cac)" d="M 117.889951 75.644372 
L 137.204293 75.644372 
" style="fill:none;stroke:#0000ff;stroke-width:1.5;"/>
    <path clip-path="url(#p62ec5d1cac)" d="M 95.96582 70.92 
L 99.661657 70.92 
" style="fill:none;stroke:#0000ff;stroke-width:1.5;"/>
   </g>
   <g id="LineCollection_2">
    <path clip-path="url(#p62ec5d1cac)" d="M 469.003822 281.533747 
L 469.003822 242.574354 
" style="fill:none;stroke:#0000ff;stroke-width:1.5;"/>
    <path clip-path="url(#p62ec5d1cac)" d="M 402.743642 275.226931 
L 402.743642 240.50062 
" style="fill:none;stroke:#0000ff;stroke-width:1.5;"/>
    <path clip-path="url(#p62ec5d1cac)" d="M 346.946725 261.089813 
L 346.946725 225.026082 
" style="fill:none;stroke:#0000ff;stroke-width:1.5;"/>
    <path clip-path="url(#p62ec5d1cac)" d="M 291.542005 231.631147 
L 291.542005 190.880902 
" style="fill:none;stroke:#0000ff;stroke-width:1.5;"/>
    <path clip-path="url(#p62ec5d1cac)" d="M 267.272101 211.956042 
L 267.272101 178.740841 
" style="fill:none;stroke:#0000ff;stroke-width:1.5;"/>
    <path clip-path="url(#p62ec5d1cac)" d="M 242.284756 187.091398 
L 242.284756 155.776345 
" style="fill:none;stroke:#0000ff;stroke-width:1.5;"/>
    <path clip-path="url(#p62ec5d1cac)" d="M 217.461322 159.577662 
L 217.461322 122.921995 
" style="fill:none;stroke:#0000ff;stroke-width:1.5;"/>
    <path clip-path="url(#p62ec5d1cac)" d="M 175.746671 124.877368 
L 175.746671 109.587743 
" style="fill:none;stroke:#0000ff;stroke-width:1.5;"/>
    <path clip-path="url(#p62ec5d1cac)" d="M 127.547122 82.567024 
L 127.547122 68.72172 
" style="fill:none;stroke:#0000ff;stroke-width:1.5;"/>
    <path clip-path="url(#p62ec5d1cac)" d="M 97.813738 70.92 
L 97.813738 70.92 
" style="fill:none;stroke:#0000ff;stroke-width:1.5;"/>
   </g>
   <g id="LineCollection_3">
    <path clip-path="url(#p62ec5d1cac)" d="M 94.238148 253.575903 
L 188.469134 253.575903 
" style="fill:none;stroke:#008000;stroke-width:1.5;"/>
    <path clip-path="url(#p62ec5d1cac)" d="M 198.909609 256.761801 
L 285.747441 256.761801 
" style="fill:none;stroke:#008000;stroke-width:1.5;"/>
    <path clip-path="url(#p62ec5d1cac)" d="M 233.410986 266.613977 
L 323.127013 266.613977 
" style="fill:none;stroke:#008000;stroke-width:1.5;"/>
   </g>
   <g id="LineCollection_4">
    <path clip-path="url(#p62ec5d1cac)" d="M 141.353641 309.897255 
L 141.353641 197.254552 
" style="fill:none;stroke:#008000;stroke-width:1.5;"/>
    <path clip-path="url(#p62ec5d1cac)" d="M 242.328525 281.385759 
L 242.328525 232.137842 
" style="fill:none;stroke:#008000;stroke-width:1.5;"/>
    <path clip-path="url(#p62ec5d1cac)" d="M 278.268999 288.7444 
L 278.268999 244.483554 
" style="fill:none;stroke:#008000;stroke-width:1.5;"/>
   </g>
   <g id="LineCollection_5">
    <path clip-path="url(#p62ec5d1cac)" d="M 425.055304 181.337547 
L 515.554577 181.337547 
" style="fill:none;stroke:#ff0000;stroke-width:1.5;"/>
    <path clip-path="url(#p62ec5d1cac)" d="M 417.322004 172.335301 
L 516.270206 172.335301 
" style="fill:none;stroke:#ff0000;stroke-width:1.5;"/>
    <path clip-path="url(#p62ec5d1cac)" d="M 411.101756 167.673607 
L 515.435213 167.673607 
" style="fill:none;stroke:#ff0000;stroke-width:1.5;"/>
    <path clip-path="url(#p62ec5d1cac)" d="M 403.359758 164.543458 
L 515.445712 164.543458 
" style="fill:none;stroke:#ff0000;stroke-width:1.5;"/>
    <path clip-path="url(#p62ec5d1cac)" d="M 381.180028 165.4853 
L 506.423263 165.4853 
" style="fill:none;stroke:#ff0000;stroke-width:1.5;"/>
    <path clip-path="url(#p62ec5d1cac)" d="M 342.22949 170.637635 
L 493.402001 170.637635 
" style="fill:none;stroke:#ff0000;stroke-width:1.5;"/>
    <path clip-path="url(#p62ec5d1cac)" d="M 312.814703 175.822918 
L 473.874871 175.822918 
" style="fill:none;stroke:#ff0000;stroke-width:1.5;"/>
   </g>
   <g id="LineCollection_6">
    <path clip-path="url(#p62ec5d1cac)" d="M 470.304941 211.664917 
L 470.304941 151.010176 
" style="fill:none;stroke:#ff0000;stroke-width:1.5;"/>
    <path clip-path="url(#p62ec5d1cac)" d="M 466.796105 198.695513 
L 466.796105 145.975089 
" style="fill:none;stroke:#ff0000;stroke-width:1.5;"/>
    <path clip-path="url(#p62ec5d1cac)" d="M 463.268484 192.634013 
L 463.268484 142.713201 
" style="fill:none;stroke:#ff0000;stroke-width:1.5;"/>
    <path clip-path="url(#p62ec5d1cac)" d="M 459.402735 188.77879 
L 459.402735 140.308127 
" style="fill:none;stroke:#ff0000;stroke-width:1.5;"/>
    <path clip-path="url(#p62ec5d1cac)" d="M 443.801645 190.357845 
L 443.801645 140.612755 
" style="fill:none;stroke:#ff0000;stroke-width:1.5;"/>
    <path clip-path="url(#p62ec5d1cac)" d="M 417.815745 197.774327 
L 417.815745 143.500943 
" style="fill:none;stroke:#ff0000;stroke-width:1.5;"/>
    <path clip-path="url(#p62ec5d1cac)" d="M 393.344787 206.099476 
L 393.344787 145.546359 
" style="fill:none;stroke:#ff0000;stroke-width:1.5;"/>
   </g>
   <g id="LineCollection_7">
    <path clip-path="url(#p62ec5d1cac)" d="M 293.964429 74.441432 
L 382.456036 74.441432 
" style="fill:none;stroke:#00bfbf;stroke-width:1.5;"/>
    <path clip-path="url(#p62ec5d1cac)" d="M 355.693377 100.122836 
L 393.867022 100.122836 
" style="fill:none;stroke:#00bfbf;stroke-width:1.5;"/>
    <path clip-path="url(#p62ec5d1cac)" d="M 355.693377 110.80376 
L 393.867022 110.80376 
" style="fill:none;stroke:#00bfbf;stroke-width:1.5;"/>
    <path clip-path="url(#p62ec5d1cac)" d="M 355.380386 142.744949 
L 409.293919 142.744949 
" style="fill:none;stroke:#00bfbf;stroke-width:1.5;"/>
    <path clip-path="url(#p62ec5d1cac)" d="M 355.380386 147.648986 
L 409.293919 147.648986 
" style="fill:none;stroke:#00bfbf;stroke-width:1.5;"/>
    <path clip-path="url(#p62ec5d1cac)" d="M 355.380386 148.663454 
L 409.293919 148.663454 
" style="fill:none;stroke:#00bfbf;stroke-width:1.5;"/>
   </g>
   <g id="LineCollection_8">
    <path clip-path="url(#p62ec5d1cac)" d="M 338.210233 79.440365 
L 338.210233 69.4425 
" style="fill:none;stroke:#00bfbf;stroke-width:1.5;"/>
    <path clip-path="url(#p62ec5d1cac)" d="M 374.7802 127.384494 
L 374.7802 72.861178 
" style="fill:none;stroke:#00bfbf;stroke-width:1.5;"/>
    <path clip-path="url(#p62ec5d1cac)" d="M 374.7802 147.355936 
L 374.7802 74.251584 
" style="fill:none;stroke:#00bfbf;stroke-width:1.5;"/>
    <path clip-path="url(#p62ec5d1cac)" d="M 382.337152 189.822118 
L 382.337152 95.667781 
" style="fill:none;stroke:#00bfbf;stroke-width:1.5;"/>
    <path clip-path="url(#p62ec5d1cac)" d="M 382.337152 191.477901 
L 382.337152 103.820071 
" style="fill:none;stroke:#00bfbf;stroke-width:1.5;"/>
    <path clip-path="url(#p62ec5d1cac)" d="M 382.337152 192.9785 
L 382.337152 104.348409 
" style="fill:none;stroke:#00bfbf;stroke-width:1.5;"/>
   </g>
   <g id="line2d_13">
    <path clip-path="url(#p62ec5d1cac)" d="M 469.003822 262.054051 
L 402.743642 257.863775 
L 346.946725 243.057947 
L 291.542005 211.256025 
L 267.272101 195.348441 
L 242.284756 171.433871 
L 217.461322 141.249828 
L 175.746671 117.232556 
L 127.547122 75.644372 
L 97.813738 70.92 
" style="fill:none;stroke:#0000ff;stroke-dasharray:5.6,2.4;stroke-dashoffset:0;stroke-width:1.5;"/>
    <defs>
     <path d="M 0 3 
C 0.795609 3 1.55874 2.683901 2.12132 2.12132 
C 2.683901 1.55874 3 0.795609 3 0 
C 3 -0.795609 2.683901 -1.55874 2.12132 -2.12132 
C 1.55874 -2.683901 0.795609 -3 0 -3 
C -0.795609 -3 -1.55874 -2.683901 -2.12132 -2.12132 
C -2.683901 -1.55874 -3 -0.795609 -3 0 
C -3 0.795609 -2.683901 1.55874 -2.12132 2.12132 
C -1.55874 2.683901 -0.795609 3 0 3 
z
" id="mf7aec19608" style="stroke:#0000ff;"/>
    </defs>
    <g clip-path="url(#p62ec5d1cac)">
     <use style="fill:#0000ff;stroke:#0000ff;" x="469.003822" xlink:href="#mf7aec19608" y="262.054051"/>
     <use style="fill:#0000ff;stroke:#0000ff;" x="402.743642" xlink:href="#mf7aec19608" y="257.863775"/>
     <use style="fill:#0000ff;stroke:#0000ff;" x="346.946725" xlink:href="#mf7aec19608" y="243.057947"/>
     <use style="fill:#0000ff;stroke:#0000ff;" x="291.542005" xlink:href="#mf7aec19608" y="211.256025"/>
     <use style="fill:#0000ff;stroke:#0000ff;" x="267.272101" xlink:href="#mf7aec19608" y="195.348441"/>
     <use style="fill:#0000ff;stroke:#0000ff;" x="242.284756" xlink:href="#mf7aec19608" y="171.433871"/>
     <use style="fill:#0000ff;stroke:#0000ff;" x="217.461322" xlink:href="#mf7aec19608" y="141.249828"/>
     <use style="fill:#0000ff;stroke:#0000ff;" x="175.746671" xlink:href="#mf7aec19608" y="117.232556"/>
     <use style="fill:#0000ff;stroke:#0000ff;" x="127.547122" xlink:href="#mf7aec19608" y="75.644372"/>
     <use style="fill:#0000ff;stroke:#0000ff;" x="97.813738" xlink:href="#mf7aec19608" y="70.92"/>
    </g>
   </g>
   <g id="line2d_14">
    <path clip-path="url(#p62ec5d1cac)" d="M 141.353641 253.575903 
L 242.328525 256.761801 
L 278.268999 266.613977 
" style="fill:none;stroke:#008000;stroke-dasharray:5.6,2.4;stroke-dashoffset:0;stroke-width:1.5;"/>
    <defs>
     <path d="M 0 3 
C 0.795609 3 1.55874 2.683901 2.12132 2.12132 
C 2.683901 1.55874 3 0.795609 3 0 
C 3 -0.795609 2.683901 -1.55874 2.12132 -2.12132 
C 1.55874 -2.683901 0.795609 -3 0 -3 
C -0.795609 -3 -1.55874 -2.683901 -2.12132 -2.12132 
C -2.683901 -1.55874 -3 -0.795609 -3 0 
C -3 0.795609 -2.683901 1.55874 -2.12132 2.12132 
C -1.55874 2.683901 -0.795609 3 0 3 
z
" id="m28665cd6ef" style="stroke:#008000;"/>
    </defs>
    <g clip-path="url(#p62ec5d1cac)">
     <use style="fill:#008000;stroke:#008000;" x="141.353641" xlink:href="#m28665cd6ef" y="253.575903"/>
     <use style="fill:#008000;stroke:#008000;" x="242.328525" xlink:href="#m28665cd6ef" y="256.761801"/>
     <use style="fill:#008000;stroke:#008000;" x="278.268999" xlink:href="#m28665cd6ef" y="266.613977"/>
    </g>
   </g>
   <g id="line2d_15">
    <path clip-path="url(#p62ec5d1cac)" d="M 470.304941 181.337547 
L 466.796105 172.335301 
L 463.268484 167.673607 
L 459.402735 164.543458 
L 443.801645 165.4853 
L 417.815745 170.637635 
L 393.344787 175.822918 
" style="fill:none;stroke:#ff0000;stroke-dasharray:5.6,2.4;stroke-dashoffset:0;stroke-width:1.5;"/>
    <defs>
     <path d="M 0 3 
C 0.795609 3 1.55874 2.683901 2.12132 2.12132 
C 2.683901 1.55874 3 0.795609 3 0 
C 3 -0.795609 2.683901 -1.55874 2.12132 -2.12132 
C 1.55874 -2.683901 0.795609 -3 0 -3 
C -0.795609 -3 -1.55874 -2.683901 -2.12132 -2.12132 
C -2.683901 -1.55874 -3 -0.795609 -3 0 
C -3 0.795609 -2.683901 1.55874 -2.12132 2.12132 
C -1.55874 2.683901 -0.795609 3 0 3 
z
" id="m595d298d32" style="stroke:#ff0000;"/>
    </defs>
    <g clip-path="url(#p62ec5d1cac)">
     <use style="fill:#ff0000;stroke:#ff0000;" x="470.304941" xlink:href="#m595d298d32" y="181.337547"/>
     <use style="fill:#ff0000;stroke:#ff0000;" x="466.796105" xlink:href="#m595d298d32" y="172.335301"/>
     <use style="fill:#ff0000;stroke:#ff0000;" x="463.268484" xlink:href="#m595d298d32" y="167.673607"/>
     <use style="fill:#ff0000;stroke:#ff0000;" x="459.402735" xlink:href="#m595d298d32" y="164.543458"/>
     <use style="fill:#ff0000;stroke:#ff0000;" x="443.801645" xlink:href="#m595d298d32" y="165.4853"/>
     <use style="fill:#ff0000;stroke:#ff0000;" x="417.815745" xlink:href="#m595d298d32" y="170.637635"/>
     <use style="fill:#ff0000;stroke:#ff0000;" x="393.344787" xlink:href="#m595d298d32" y="175.822918"/>
    </g>
   </g>
   <g id="line2d_16">
    <path clip-path="url(#p62ec5d1cac)" d="M 338.210233 74.441432 
L 374.7802 100.122836 
L 374.7802 110.80376 
L 382.337152 142.744949 
L 382.337152 147.648986 
L 382.337152 148.663454 
" style="fill:none;stroke:#00bfbf;stroke-dasharray:5.6,2.4;stroke-dashoffset:0;stroke-width:1.5;"/>
    <defs>
     <path d="M 0 3 
C 0.795609 3 1.55874 2.683901 2.12132 2.12132 
C 2.683901 1.55874 3 0.795609 3 0 
C 3 -0.795609 2.683901 -1.55874 2.12132 -2.12132 
C 1.55874 -2.683901 0.795609 -3 0 -3 
C -0.795609 -3 -1.55874 -2.683901 -2.12132 -2.12132 
C -2.683901 -1.55874 -3 -0.795609 -3 0 
C -3 0.795609 -2.683901 1.55874 -2.12132 2.12132 
C -1.55874 2.683901 -0.795609 3 0 3 
z
" id="md93d92053f" style="stroke:#00bfbf;"/>
    </defs>
    <g clip-path="url(#p62ec5d1cac)">
     <use style="fill:#00bfbf;stroke:#00bfbf;" x="338.210233" xlink:href="#md93d92053f" y="74.441432"/>
     <use style="fill:#00bfbf;stroke:#00bfbf;" x="374.7802" xlink:href="#md93d92053f" y="100.122836"/>
     <use style="fill:#00bfbf;stroke:#00bfbf;" x="374.7802" xlink:href="#md93d92053f" y="110.80376"/>
     <use style="fill:#00bfbf;stroke:#00bfbf;" x="382.337152" xlink:href="#md93d92053f" y="142.744949"/>
     <use style="fill:#00bfbf;stroke:#00bfbf;" x="382.337152" xlink:href="#md93d92053f" y="147.648986"/>
     <use style="fill:#00bfbf;stroke:#00bfbf;" x="382.337152" xlink:href="#md93d92053f" y="148.663454"/>
    </g>
   </g>
   <g id="patch_3">
    <path d="M 90 320.4 
L 90 70.92 
" style="fill:none;stroke:#000000;stroke-linecap:square;stroke-linejoin:miter;stroke-width:0.8;"/>
   </g>
   <g id="patch_4">
    <path d="M 536.4 320.4 
L 536.4 70.92 
" style="fill:none;stroke:#000000;stroke-linecap:square;stroke-linejoin:miter;stroke-width:0.8;"/>
   </g>
   <g id="patch_5">
    <path d="M 90 320.4 
L 536.4 320.4 
" style="fill:none;stroke:#000000;stroke-linecap:square;stroke-linejoin:miter;stroke-width:0.8;"/>
   </g>
   <g id="patch_6">
    <path d="M 90 70.92 
L 536.4 70.92 
" style="fill:none;stroke:#000000;stroke-linecap:square;stroke-linejoin:miter;stroke-width:0.8;"/>
   </g>
   <g id="patch_7">
    <path d="M 470.832182 276.547495 
Q 470.262073 269.863561 469.691964 263.179626 
Q 475.381177 266.7339 481.070389 270.288173 
z
" style="fill:#0000ff;stroke:#000000;stroke-linecap:round;"/>
   </g>
   <g id="text_15">
    <!-- 100.0 -->
    <g transform="translate(424.363822 287.002051)scale(0.18 -0.18)">
     <use xlink:href="#DejaVuSans-31"/>
     <use x="63.623047" xlink:href="#DejaVuSans-30"/>
     <use x="127.246094" xlink:href="#DejaVuSans-30"/>
     <use x="190.869141" xlink:href="#DejaVuSans-2e"/>
     <use x="222.65625" xlink:href="#DejaVuSans-30"/>
    </g>
   </g>
   <g id="patch_8">
    <path d="M 99.642099 85.413444 
Q 99.07199 78.72951 98.50188 72.045576 
Q 104.191093 75.599849 109.880306 79.154122 
z
" style="fill:#0000ff;stroke:#000000;stroke-linecap:round;"/>
   </g>
   <g id="text_16">
    <!-- 800.0 -->
    <g transform="translate(53.173738 95.868)scale(0.18 -0.18)">
     <use xlink:href="#DejaVuSans-38"/>
     <use x="63.623047" xlink:href="#DejaVuSans-30"/>
     <use x="127.246094" xlink:href="#DejaVuSans-30"/>
     <use x="190.869141" xlink:href="#DejaVuSans-2e"/>
     <use x="222.65625" xlink:href="#DejaVuSans-30"/>
    </g>
   </g>
   <g id="patch_9">
    <path d="M 130.834277 263.573464 
Q 135.866233 259.137315 140.898189 254.701166 
Q 141.427935 261.38842 141.95768 268.075675 
z
" style="fill:#008000;stroke:#000000;stroke-linecap:round;"/>
   </g>
   <g id="text_17">
    <!-- 25.0 -->
    <defs>
     <path d="M 10.796875 72.90625 
L 49.515625 72.90625 
L 49.515625 64.59375 
L 19.828125 64.59375 
L 19.828125 46.734375 
Q 21.96875 47.46875 24.109375 47.828125 
Q 26.265625 48.1875 28.421875 48.1875 
Q 40.625 48.1875 47.75 41.5 
Q 54.890625 34.8125 54.890625 23.390625 
Q 54.890625 11.625 47.5625 5.09375 
Q 40.234375 -1.421875 26.90625 -1.421875 
Q 22.3125 -1.421875 17.546875 -0.640625 
Q 12.796875 0.140625 7.71875 1.703125 
L 7.71875 11.625 
Q 12.109375 9.234375 16.796875 8.0625 
Q 21.484375 6.890625 26.703125 6.890625 
Q 35.15625 6.890625 40.078125 11.328125 
Q 45.015625 15.765625 45.015625 23.390625 
Q 45.015625 31 40.078125 35.4375 
Q 35.15625 39.890625 26.703125 39.890625 
Q 22.75 39.890625 18.8125 39.015625 
Q 14.890625 38.140625 10.796875 36.28125 
z
" id="DejaVuSans-35"/>
    </defs>
    <g transform="translate(96.713641 278.523903)scale(0.18 -0.18)">
     <use xlink:href="#DejaVuSans-32"/>
     <use x="63.623047" xlink:href="#DejaVuSans-35"/>
     <use x="127.246094" xlink:href="#DejaVuSans-2e"/>
     <use x="159.033203" xlink:href="#DejaVuSans-30"/>
    </g>
   </g>
   <g id="patch_10">
    <path d="M 280.09736 281.107421 
Q 279.527251 274.423487 278.957141 267.739553 
Q 284.646354 271.293826 290.335567 274.848099 
z
" style="fill:#008000;stroke:#000000;stroke-linecap:round;"/>
   </g>
   <g id="text_18">
    <!-- 200.0 -->
    <g transform="translate(233.628999 291.561977)scale(0.18 -0.18)">
     <use xlink:href="#DejaVuSans-32"/>
     <use x="63.623047" xlink:href="#DejaVuSans-30"/>
     <use x="127.246094" xlink:href="#DejaVuSans-30"/>
     <use x="190.869141" xlink:href="#DejaVuSans-2e"/>
     <use x="222.65625" xlink:href="#DejaVuSans-30"/>
    </g>
   </g>
   <g id="patch_11">
    <path d="M 456.735439 188.442003 
Q 457.235771 188.089873 457.736104 187.737742 
L 455.433934 184.466654 
Q 462.067516 183.466488 468.701097 182.466321 
Q 465.520771 188.373119 462.340444 194.279917 
L 460.038274 191.008829 
Q 459.537941 191.36096 459.037609 191.713091 
L 456.735439 188.442003 
z
" style="fill:#ff0000;stroke:#000000;stroke-linecap:round;"/>
   </g>
   <g id="text_19">
    <!-- 5.0 -->
    <g transform="translate(425.664941 206.285547)scale(0.18 -0.18)">
     <use xlink:href="#DejaVuSans-35"/>
     <use x="63.623047" xlink:href="#DejaVuSans-2e"/>
     <use x="95.410156" xlink:href="#DejaVuSans-30"/>
    </g>
   </g>
   <g id="patch_12">
    <path d="M 382.825423 185.820478 
Q 387.857379 181.384329 392.889336 176.94818 
Q 393.419081 183.635435 393.948826 190.322689 
z
" style="fill:#ff0000;stroke:#000000;stroke-linecap:round;"/>
   </g>
   <g id="text_20">
    <!-- 50.0 -->
    <g transform="translate(348.704787 200.770918)scale(0.18 -0.18)">
     <use xlink:href="#DejaVuSans-35"/>
     <use x="63.623047" xlink:href="#DejaVuSans-30"/>
     <use x="127.246094" xlink:href="#DejaVuSans-2e"/>
     <use x="159.033203" xlink:href="#DejaVuSans-30"/>
    </g>
   </g>
   <g id="patch_13">
    <path d="M 324.640731 81.545889 
Q 325.141064 81.193759 325.641396 80.841628 
L 323.339226 77.57054 
Q 329.972808 76.570374 336.606389 75.570207 
Q 333.426063 81.477005 330.245736 87.383803 
L 327.943566 84.112715 
Q 327.443234 84.464846 326.942901 84.816977 
L 324.640731 81.545889 
z
" style="fill:#00bfbf;stroke:#000000;stroke-linecap:round;"/>
   </g>
   <g id="text_21">
    <!-- 1.0 -->
    <g transform="translate(293.570233 99.389432)scale(0.18 -0.18)">
     <use xlink:href="#DejaVuSans-31"/>
     <use x="63.623047" xlink:href="#DejaVuSans-2e"/>
     <use x="95.410156" xlink:href="#DejaVuSans-30"/>
    </g>
   </g>
   <g id="patch_14">
    <path d="M 371.817788 158.661015 
Q 376.849745 154.224866 381.881701 149.788717 
Q 382.411446 156.475971 382.941192 163.163226 
z
" style="fill:#00bfbf;stroke:#000000;stroke-linecap:round;"/>
   </g>
   <g id="text_22">
    <!-- 25.0 -->
    <g transform="translate(337.697152 173.611454)scale(0.18 -0.18)">
     <use xlink:href="#DejaVuSans-32"/>
     <use x="63.623047" xlink:href="#DejaVuSans-35"/>
     <use x="127.246094" xlink:href="#DejaVuSans-2e"/>
     <use x="159.033203" xlink:href="#DejaVuSans-30"/>
    </g>
   </g>
   <g id="text_23">
    <!-- attacker type 16 (20.0% attackers) -->
    <defs>
     <path d="M 18.3125 70.21875 
L 18.3125 54.6875 
L 36.8125 54.6875 
L 36.8125 47.703125 
L 18.3125 47.703125 
L 18.3125 18.015625 
Q 18.3125 11.328125 20.140625 9.421875 
Q 21.96875 7.515625 27.59375 7.515625 
L 36.8125 7.515625 
L 36.8125 0 
L 27.59375 0 
Q 17.1875 0 13.234375 3.875 
Q 9.28125 7.765625 9.28125 18.015625 
L 9.28125 47.703125 
L 2.6875 47.703125 
L 2.6875 54.6875 
L 9.28125 54.6875 
L 9.28125 70.21875 
z
" id="DejaVuSans-74"/>
     <path d="M 9.078125 75.984375 
L 18.109375 75.984375 
L 18.109375 31.109375 
L 44.921875 54.6875 
L 56.390625 54.6875 
L 27.390625 29.109375 
L 57.625 0 
L 45.90625 0 
L 18.109375 26.703125 
L 18.109375 0 
L 9.078125 0 
z
" id="DejaVuSans-6b"/>
     <path id="DejaVuSans-20"/>
     <path d="M 32.171875 -5.078125 
Q 28.375 -14.84375 24.75 -17.8125 
Q 21.140625 -20.796875 15.09375 -20.796875 
L 7.90625 -20.796875 
L 7.90625 -13.28125 
L 13.1875 -13.28125 
Q 16.890625 -13.28125 18.9375 -11.515625 
Q 21 -9.765625 23.484375 -3.21875 
L 25.09375 0.875 
L 2.984375 54.6875 
L 12.5 54.6875 
L 29.59375 11.921875 
L 46.6875 54.6875 
L 56.203125 54.6875 
z
" id="DejaVuSans-79"/>
     <path d="M 31 75.875 
Q 24.46875 64.65625 21.28125 53.65625 
Q 18.109375 42.671875 18.109375 31.390625 
Q 18.109375 20.125 21.3125 9.0625 
Q 24.515625 -2 31 -13.1875 
L 23.1875 -13.1875 
Q 15.875 -1.703125 12.234375 9.375 
Q 8.59375 20.453125 8.59375 31.390625 
Q 8.59375 42.28125 12.203125 53.3125 
Q 15.828125 64.359375 23.1875 75.875 
z
" id="DejaVuSans-28"/>
     <path d="M 72.703125 32.078125 
Q 68.453125 32.078125 66.03125 28.46875 
Q 63.625 24.859375 63.625 18.40625 
Q 63.625 12.0625 66.03125 8.421875 
Q 68.453125 4.78125 72.703125 4.78125 
Q 76.859375 4.78125 79.265625 8.421875 
Q 81.6875 12.0625 81.6875 18.40625 
Q 81.6875 24.8125 79.265625 28.4375 
Q 76.859375 32.078125 72.703125 32.078125 
M 72.703125 38.28125 
Q 80.421875 38.28125 84.953125 32.90625 
Q 89.5 27.546875 89.5 18.40625 
Q 89.5 9.28125 84.9375 3.921875 
Q 80.375 -1.421875 72.703125 -1.421875 
Q 64.890625 -1.421875 60.34375 3.921875 
Q 55.8125 9.28125 55.8125 18.40625 
Q 55.8125 27.59375 60.375 32.9375 
Q 64.9375 38.28125 72.703125 38.28125 
M 22.3125 68.015625 
Q 18.109375 68.015625 15.6875 64.375 
Q 13.28125 60.75 13.28125 54.390625 
Q 13.28125 47.953125 15.671875 44.328125 
Q 18.0625 40.71875 22.3125 40.71875 
Q 26.5625 40.71875 28.96875 44.328125 
Q 31.390625 47.953125 31.390625 54.390625 
Q 31.390625 60.6875 28.953125 64.34375 
Q 26.515625 68.015625 22.3125 68.015625 
M 66.40625 74.21875 
L 74.21875 74.21875 
L 28.609375 -1.421875 
L 20.796875 -1.421875 
z
M 22.3125 74.21875 
Q 30.03125 74.21875 34.609375 68.875 
Q 39.203125 63.53125 39.203125 54.390625 
Q 39.203125 45.171875 34.640625 39.84375 
Q 30.078125 34.515625 22.3125 34.515625 
Q 14.546875 34.515625 10.03125 39.859375 
Q 5.515625 45.21875 5.515625 54.390625 
Q 5.515625 63.484375 10.046875 68.84375 
Q 14.59375 74.21875 22.3125 74.21875 
" id="DejaVuSans-25"/>
     <path d="M 8.015625 75.875 
L 15.828125 75.875 
Q 23.140625 64.359375 26.78125 53.3125 
Q 30.421875 42.28125 30.421875 31.390625 
Q 30.421875 20.453125 26.78125 9.375 
Q 23.140625 -1.703125 15.828125 -13.1875 
L 8.015625 -13.1875 
Q 14.5 -2 17.703125 9.0625 
Q 20.90625 20.125 20.90625 31.390625 
Q 20.90625 42.671875 17.703125 53.65625 
Q 14.5 64.65625 8.015625 75.875 
" id="DejaVuSans-29"/>
    </defs>
    <g transform="translate(123.283688 64.92)scale(0.216 -0.216)">
     <use xlink:href="#DejaVuSans-61"/>
     <use x="61.279297" xlink:href="#DejaVuSans-74"/>
     <use x="100.488281" xlink:href="#DejaVuSans-74"/>
     <use x="139.697266" xlink:href="#DejaVuSans-61"/>
     <use x="200.976562" xlink:href="#DejaVuSans-63"/>
     <use x="255.957031" xlink:href="#DejaVuSans-6b"/>
     <use x="313.820312" xlink:href="#DejaVuSans-65"/>
     <use x="375.34375" xlink:href="#DejaVuSans-72"/>
     <use x="416.457031" xlink:href="#DejaVuSans-20"/>
     <use x="448.244141" xlink:href="#DejaVuSans-74"/>
     <use x="487.453125" xlink:href="#DejaVuSans-79"/>
     <use x="546.632812" xlink:href="#DejaVuSans-70"/>
     <use x="610.109375" xlink:href="#DejaVuSans-65"/>
     <use x="671.632812" xlink:href="#DejaVuSans-20"/>
     <use x="703.419922" xlink:href="#DejaVuSans-31"/>
     <use x="767.042969" xlink:href="#DejaVuSans-36"/>
     <use x="830.666016" xlink:href="#DejaVuSans-20"/>
     <use x="862.453125" xlink:href="#DejaVuSans-28"/>
     <use x="901.466797" xlink:href="#DejaVuSans-32"/>
     <use x="965.089844" xlink:href="#DejaVuSans-30"/>
     <use x="1028.712891" xlink:href="#DejaVuSans-2e"/>
     <use x="1060.5" xlink:href="#DejaVuSans-30"/>
     <use x="1124.123047" xlink:href="#DejaVuSans-25"/>
     <use x="1219.142578" xlink:href="#DejaVuSans-20"/>
     <use x="1250.929688" xlink:href="#DejaVuSans-61"/>
     <use x="1312.208984" xlink:href="#DejaVuSans-74"/>
     <use x="1351.417969" xlink:href="#DejaVuSans-74"/>
     <use x="1390.626953" xlink:href="#DejaVuSans-61"/>
     <use x="1451.90625" xlink:href="#DejaVuSans-63"/>
     <use x="1506.886719" xlink:href="#DejaVuSans-6b"/>
     <use x="1564.75" xlink:href="#DejaVuSans-65"/>
     <use x="1626.273438" xlink:href="#DejaVuSans-72"/>
     <use x="1667.386719" xlink:href="#DejaVuSans-73"/>
     <use x="1719.486328" xlink:href="#DejaVuSans-29"/>
    </g>
   </g>
   <g id="legend_1">
    <g id="patch_15">
     <path d="M 549 251.20125 
L 659.379375 251.20125 
Q 662.979375 251.20125 662.979375 247.60125 
L 662.979375 143.71875 
Q 662.979375 140.11875 659.379375 140.11875 
L 549 140.11875 
Q 545.4 140.11875 545.4 143.71875 
L 545.4 247.60125 
Q 545.4 251.20125 549 251.20125 
z
" style="fill:#ffffff;opacity:0.8;stroke:#cccccc;stroke-linejoin:miter;"/>
    </g>
    <g id="LineCollection_9">
     <path d="M 561.6 154.695937 
L 579.6 154.695937 
" style="fill:none;stroke:#0000ff;stroke-width:1.5;"/>
    </g>
    <g id="LineCollection_10">
     <path d="M 570.6 163.695937 
L 570.6 145.695937 
" style="fill:none;stroke:#0000ff;stroke-width:1.5;"/>
    </g>
    <g id="line2d_17">
     <path d="M 552.6 154.695937 
L 588.6 154.695937 
" style="fill:none;stroke:#0000ff;stroke-dasharray:5.6,2.4;stroke-dashoffset:0;stroke-width:1.5;"/>
    </g>
    <g id="line2d_18">
     <g>
      <use style="fill:#0000ff;stroke:#0000ff;" x="570.6" xlink:href="#mf7aec19608" y="154.695937"/>
     </g>
    </g>
    <g id="text_24">
     <!-- eART -->
     <defs>
      <path d="M 34.1875 63.1875 
L 20.796875 26.90625 
L 47.609375 26.90625 
z
M 28.609375 72.90625 
L 39.796875 72.90625 
L 67.578125 0 
L 57.328125 0 
L 50.6875 18.703125 
L 17.828125 18.703125 
L 11.1875 0 
L 0.78125 0 
z
" id="DejaVuSans-41"/>
      <path d="M 44.390625 34.1875 
Q 47.5625 33.109375 50.5625 29.59375 
Q 53.5625 26.078125 56.59375 19.921875 
L 66.609375 0 
L 56 0 
L 46.6875 18.703125 
Q 43.0625 26.03125 39.671875 28.421875 
Q 36.28125 30.8125 30.421875 30.8125 
L 19.671875 30.8125 
L 19.671875 0 
L 9.8125 0 
L 9.8125 72.90625 
L 32.078125 72.90625 
Q 44.578125 72.90625 50.734375 67.671875 
Q 56.890625 62.453125 56.890625 51.90625 
Q 56.890625 45.015625 53.6875 40.46875 
Q 50.484375 35.9375 44.390625 34.1875 
M 19.671875 64.796875 
L 19.671875 38.921875 
L 32.078125 38.921875 
Q 39.203125 38.921875 42.84375 42.21875 
Q 46.484375 45.515625 46.484375 51.90625 
Q 46.484375 58.296875 42.84375 61.546875 
Q 39.203125 64.796875 32.078125 64.796875 
z
" id="DejaVuSans-52"/>
      <path d="M -0.296875 72.90625 
L 61.375 72.90625 
L 61.375 64.59375 
L 35.5 64.59375 
L 35.5 0 
L 25.59375 0 
L 25.59375 64.59375 
L -0.296875 64.59375 
z
" id="DejaVuSans-54"/>
     </defs>
     <g transform="translate(603 160.995937)scale(0.18 -0.18)">
      <use xlink:href="#DejaVuSans-65"/>
      <use x="61.523438" xlink:href="#DejaVuSans-41"/>
      <use x="129.931641" xlink:href="#DejaVuSans-52"/>
      <use x="199.304688" xlink:href="#DejaVuSans-54"/>
     </g>
    </g>
    <g id="LineCollection_11">
     <path d="M 561.6 181.116562 
L 579.6 181.116562 
" style="fill:none;stroke:#008000;stroke-width:1.5;"/>
    </g>
    <g id="LineCollection_12">
     <path d="M 570.6 190.116562 
L 570.6 172.116562 
" style="fill:none;stroke:#008000;stroke-width:1.5;"/>
    </g>
    <g id="line2d_19">
     <path d="M 552.6 181.116562 
L 588.6 181.116562 
" style="fill:none;stroke:#008000;stroke-dasharray:5.6,2.4;stroke-dashoffset:0;stroke-width:1.5;"/>
    </g>
    <g id="line2d_20">
     <g>
      <use style="fill:#008000;stroke:#008000;" x="570.6" xlink:href="#m28665cd6ef" y="181.116562"/>
     </g>
    </g>
    <g id="text_25">
     <!-- eSAW -->
     <defs>
      <path d="M 53.515625 70.515625 
L 53.515625 60.890625 
Q 47.90625 63.578125 42.921875 64.890625 
Q 37.9375 66.21875 33.296875 66.21875 
Q 25.25 66.21875 20.875 63.09375 
Q 16.5 59.96875 16.5 54.203125 
Q 16.5 49.359375 19.40625 46.890625 
Q 22.3125 44.4375 30.421875 42.921875 
L 36.375 41.703125 
Q 47.40625 39.59375 52.65625 34.296875 
Q 57.90625 29 57.90625 20.125 
Q 57.90625 9.515625 50.796875 4.046875 
Q 43.703125 -1.421875 29.984375 -1.421875 
Q 24.8125 -1.421875 18.96875 -0.25 
Q 13.140625 0.921875 6.890625 3.21875 
L 6.890625 13.375 
Q 12.890625 10.015625 18.65625 8.296875 
Q 24.421875 6.59375 29.984375 6.59375 
Q 38.421875 6.59375 43.015625 9.90625 
Q 47.609375 13.234375 47.609375 19.390625 
Q 47.609375 24.75 44.3125 27.78125 
Q 41.015625 30.8125 33.5 32.328125 
L 27.484375 33.5 
Q 16.453125 35.6875 11.515625 40.375 
Q 6.59375 45.0625 6.59375 53.421875 
Q 6.59375 63.09375 13.40625 68.65625 
Q 20.21875 74.21875 32.171875 74.21875 
Q 37.3125 74.21875 42.625 73.28125 
Q 47.953125 72.359375 53.515625 70.515625 
" id="DejaVuSans-53"/>
      <path d="M 3.328125 72.90625 
L 13.28125 72.90625 
L 28.609375 11.28125 
L 43.890625 72.90625 
L 54.984375 72.90625 
L 70.3125 11.28125 
L 85.59375 72.90625 
L 95.609375 72.90625 
L 77.296875 0 
L 64.890625 0 
L 49.515625 63.28125 
L 33.984375 0 
L 21.578125 0 
z
" id="DejaVuSans-57"/>
     </defs>
     <g transform="translate(603 187.416562)scale(0.18 -0.18)">
      <use xlink:href="#DejaVuSans-65"/>
      <use x="61.523438" xlink:href="#DejaVuSans-53"/>
      <use x="125.015625" xlink:href="#DejaVuSans-41"/>
      <use x="193.345703" xlink:href="#DejaVuSans-57"/>
     </g>
    </g>
    <g id="LineCollection_13">
     <path d="M 561.6 207.537187 
L 579.6 207.537187 
" style="fill:none;stroke:#ff0000;stroke-width:1.5;"/>
    </g>
    <g id="LineCollection_14">
     <path d="M 570.6 216.537187 
L 570.6 198.537187 
" style="fill:none;stroke:#ff0000;stroke-width:1.5;"/>
    </g>
    <g id="line2d_21">
     <path d="M 552.6 207.537187 
L 588.6 207.537187 
" style="fill:none;stroke:#ff0000;stroke-dasharray:5.6,2.4;stroke-dashoffset:0;stroke-width:1.5;"/>
    </g>
    <g id="line2d_22">
     <g>
      <use style="fill:#ff0000;stroke:#ff0000;" x="570.6" xlink:href="#m595d298d32" y="207.537187"/>
     </g>
    </g>
    <g id="text_26">
     <!-- eSSC -->
     <defs>
      <path d="M 64.40625 67.28125 
L 64.40625 56.890625 
Q 59.421875 61.53125 53.78125 63.8125 
Q 48.140625 66.109375 41.796875 66.109375 
Q 29.296875 66.109375 22.65625 58.46875 
Q 16.015625 50.828125 16.015625 36.375 
Q 16.015625 21.96875 22.65625 14.328125 
Q 29.296875 6.6875 41.796875 6.6875 
Q 48.140625 6.6875 53.78125 8.984375 
Q 59.421875 11.28125 64.40625 15.921875 
L 64.40625 5.609375 
Q 59.234375 2.09375 53.4375 0.328125 
Q 47.65625 -1.421875 41.21875 -1.421875 
Q 24.65625 -1.421875 15.125 8.703125 
Q 5.609375 18.84375 5.609375 36.375 
Q 5.609375 53.953125 15.125 64.078125 
Q 24.65625 74.21875 41.21875 74.21875 
Q 47.75 74.21875 53.53125 72.484375 
Q 59.328125 70.75 64.40625 67.28125 
" id="DejaVuSans-43"/>
     </defs>
     <g transform="translate(603 213.837187)scale(0.18 -0.18)">
      <use xlink:href="#DejaVuSans-65"/>
      <use x="61.523438" xlink:href="#DejaVuSans-53"/>
      <use x="125" xlink:href="#DejaVuSans-53"/>
      <use x="188.476562" xlink:href="#DejaVuSans-43"/>
     </g>
    </g>
    <g id="LineCollection_15">
     <path d="M 561.6 233.957812 
L 579.6 233.957812 
" style="fill:none;stroke:#00bfbf;stroke-width:1.5;"/>
    </g>
    <g id="LineCollection_16">
     <path d="M 570.6 242.957812 
L 570.6 224.957812 
" style="fill:none;stroke:#00bfbf;stroke-width:1.5;"/>
    </g>
    <g id="line2d_23">
     <path d="M 552.6 233.957812 
L 588.6 233.957812 
" style="fill:none;stroke:#00bfbf;stroke-dasharray:5.6,2.4;stroke-dashoffset:0;stroke-width:1.5;"/>
    </g>
    <g id="line2d_24">
     <g>
      <use style="fill:#00bfbf;stroke:#00bfbf;" x="570.6" xlink:href="#md93d92053f" y="233.957812"/>
     </g>
    </g>
    <g id="text_27">
     <!-- eDMV -->
     <defs>
      <path d="M 19.671875 64.796875 
L 19.671875 8.109375 
L 31.59375 8.109375 
Q 46.6875 8.109375 53.6875 14.9375 
Q 60.6875 21.78125 60.6875 36.53125 
Q 60.6875 51.171875 53.6875 57.984375 
Q 46.6875 64.796875 31.59375 64.796875 
z
M 9.8125 72.90625 
L 30.078125 72.90625 
Q 51.265625 72.90625 61.171875 64.09375 
Q 71.09375 55.28125 71.09375 36.53125 
Q 71.09375 17.671875 61.125 8.828125 
Q 51.171875 0 30.078125 0 
L 9.8125 0 
z
" id="DejaVuSans-44"/>
      <path d="M 9.8125 72.90625 
L 24.515625 72.90625 
L 43.109375 23.296875 
L 61.8125 72.90625 
L 76.515625 72.90625 
L 76.515625 0 
L 66.890625 0 
L 66.890625 64.015625 
L 48.09375 14.015625 
L 38.1875 14.015625 
L 19.390625 64.015625 
L 19.390625 0 
L 9.8125 0 
z
" id="DejaVuSans-4d"/>
      <path d="M 28.609375 0 
L 0.78125 72.90625 
L 11.078125 72.90625 
L 34.1875 11.53125 
L 57.328125 72.90625 
L 67.578125 72.90625 
L 39.796875 0 
z
" id="DejaVuSans-56"/>
     </defs>
     <g transform="translate(603 240.257812)scale(0.18 -0.18)">
      <use xlink:href="#DejaVuSans-65"/>
      <use x="61.523438" xlink:href="#DejaVuSans-44"/>
      <use x="138.525391" xlink:href="#DejaVuSans-4d"/>
      <use x="224.804688" xlink:href="#DejaVuSans-56"/>
     </g>
    </g>
   </g>
  </g>
 </g>
 <defs>
  <clipPath id="p62ec5d1cac">
   <rect height="249.48" width="446.4" x="90" y="70.92"/>
  </clipPath>
 </defs>
</svg>
